  0
SECTION
  2
HEADER
  9
$ACADVER
  1
AC1014
  9
$HANDSEED
  5
FFFF
  9
$MEASUREMENT
 70
     1
  0
ENDSEC
  0
SECTION
  2
TABLES
  0
TABLE
  2
VPORT
  5
8
330
0
100
AcDbSymbolTable
 70
     4
  0
VPORT
  5
2E
330
8
100
AcDbSymbolTableRecord
100
AcDbViewportTableRecord
  2
*ACTIVE
 70
     0
 10
0.0
 20
0.0
 11
1.0
 21
1.0
 12
210.0
 22
148.5
 13
0.0
 23
0.0
 14
10.0
 24
10.0
 15
10.0
 25
10.0
 16
0.0
 26
0.0
 36
1.0
 17
0.0
 27
0.0
 37
0.0
 40
341.0
 41
1.24
 42
50.0
 43
0.0
 44
0.0
 50
0.0
 51
0.0
 71
     0
 72
   100
 73
     1
 74
     3
 75
     0
 76
     0
 77
     0
 78
     0
  0
ENDTAB
  0
TABLE
  2
LTYPE
  5
5
330
0
100
AcDbSymbolTable
 70
     1
  0
LTYPE
  5
14
330
5
100
AcDbSymbolTableRecord
100
AcDbLinetypeTableRecord
  2
BYBLOCK
 70
     0
  3

 72
    65
 73
     0
 40
0.0
  0
LTYPE
  5
15
330
5
100
AcDbSymbolTableRecord
100
AcDbLinetypeTableRecord
  2
BYLAYER
 70
     0
  3

 72
    65
 73
     0
 40
0.0
  0
LTYPE
  5
16
330
5
100
AcDbSymbolTableRecord
100
AcDbLinetypeTableRecord
  2
CONTINUOUS
 70
     0
  3
Solid line
 72
    65
 73
     0
 40
0.0
  0
ENDTAB
  0
TABLE
  2
LAYER
  5
2
100
AcDbSymbolTable
 70
2
  0
LAYER
  5
50
100
AcDbSymbolTableRecord
100
AcDbLayerTableRecord
  2
0
 70
0
  6
CONTINUOUS
  0
LAYER
  5
51
100
AcDbSymbolTableRecord
100
AcDbLayerTableRecord
  2
Layer_1
 70
0
  6
CONTINUOUS
  0
ENDTAB
  0
TABLE
  2
STYLE
  5
3
330
0
100
AcDbSymbolTable
 70
     1
  0
STYLE
  5
11
330
3
100
AcDbSymbolTableRecord
100
AcDbTextStyleTableRecord
  2
STANDARD
 70
     0
 40
0.0
 41
1.0
 50
0.0
 71
     0
 42
2.5
  3
txt
  4

  0
ENDTAB
  0
TABLE
  2
VIEW
  5
6
330
0
100
AcDbSymbolTable
 70
     0
  0
ENDTAB
  0
TABLE
  2
UCS
  5
7
330
0
100
AcDbSymbolTable
 70
     0
  0
ENDTAB
  0
TABLE
  2
APPID
  5
9
330
0
100
AcDbSymbolTable
 70
     2
  0
APPID
  5
12
330
9
100
AcDbSymbolTableRecord
100
AcDbRegAppTableRecord
  2
ACAD
 70
     0
  0
ENDTAB
  0
TABLE
  2
DIMSTYLE
  5
A
330
0
100
AcDbSymbolTable
 70
     1
  0
DIMSTYLE
105
27
330
A
100
AcDbSymbolTableRecord
100
AcDbDimStyleTableRecord
  2
ISO-25
 70
     0
  3

  4

  5

  6

  7

 40
1.0
 41
2.5
 42
0.625
 43
3.75
 44
1.25
 45
0.0
 46
0.0
 47
0.0
 48
0.0
140
2.5
141
2.5
142
0.0
143
0.03937007874016
144
1.0
145
0.0
146
1.0
147
0.625
 71
     0
 72
     0
 73
     0
 74
     0
 75
     0
 76
     0
 77
     1
 78
     8
170
     0
171
     3
172
     1
173
     0
174
     0
175
     0
176
     0
177
     0
178
     0
270
     2
271
     2
272
     2
273
     2
274
     3
340
11
275
     0
280
     0
281
     0
282
     0
283
     0
284
     8
285
     0
286
     0
287
     3
288
     0
  0
ENDTAB
  0
TABLE
  2
BLOCK_RECORD
  5
1
330
0
100
AcDbSymbolTable
 70
     1
  0
BLOCK_RECORD
  5
1F
330
1
100
AcDbSymbolTableRecord
100
AcDbBlockTableRecord
  2
*MODEL_SPACE
  0
BLOCK_RECORD
  5
1B
330
1
100
AcDbSymbolTableRecord
100
AcDbBlockTableRecord
  2
*PAPER_SPACE
  0
ENDTAB
  0
ENDSEC
  0
SECTION
  2
BLOCKS
  0
BLOCK
  5
20
330
1F
100
AcDbEntity
  8
0
100
AcDbBlockBegin
  2
*MODEL_SPACE
 70
     0
 10
0.0
 20
0.0
 30
0.0
  3
*MODEL_SPACE
  1

  0
ENDBLK
  5
21
330
1F
100
AcDbEntity
  8
0
100
AcDbBlockEnd
  0
BLOCK
  5
1C
330
1B
100
AcDbEntity
 67
     1
  8
0
100
AcDbBlockBegin
  2
*PAPER_SPACE
  1

  0
ENDBLK
  5
1D
330
1B
100
AcDbEntity
 67
     1
  8
0
100
AcDbBlockEnd
  0
ENDSEC
  0
SECTION
  2
ENTITIES
  0
SPLINE
  5
100
100
AcDbEntity
  8
Layer_1
 62
7
100
AcDbSpline
 70
0
 71
3
 72
16
 73
12
 74
10
 40
0.000000
 40
0.000000
 40
0.000000
 40
0.000000
 40
3.613813
 40
6.709668
 40
9.761105
 40
20.739670
 40
31.312643
 40
42.628942
 40
46.996127
 40
52.506860
 40
61.529257
 40
61.529257
 40
61.529257
 40
61.529257
 10
-787.604682
 20
860.152139
 30
0.0
 10
-788.809395
 20
860.123215
 30
0.0
 10
-791.046153
 20
860.069513
 30
0.0
 10
-794.283882
 20
859.698499
 30
0.0
 10
-799.889718
 20
858.631657
 30
0.0
 10
-807.726302
 20
855.654520
 30
0.0
 10
-815.936716
 20
848.008355
 30
0.0
 10
-819.899199
 20
840.022288
 30
0.0
 10
-821.760654
 20
833.185843
 30
0.0
 10
-822.200719
 20
826.874187
 30
0.0
 10
-822.252340
 20
822.033731
 30
0.0
 10
-822.284387
 20
819.028699
 30
0.0
 11
-787.604682
 21
860.152139
 31
0.0
 11
-791.215577
 21
860.006964
 31
0.0
 11
-794.291809
 21
859.658948
 31
0.0
 11
-797.289071
 21
859.086505
 31
0.0
 11
-807.471164
 21
854.981160
 31
0.0
 11
-815.246024
 21
847.816014
 31
0.0
 11
-820.432811
 21
837.758386
 31
0.0
 11
-821.535595
 21
833.532730
 31
0.0
 11
-822.077724
 21
828.048729
 31
0.0
 11
-822.284387
 21
819.028699
 31
0.0
  0
LWPOLYLINE
  5
101
100
AcDbEntity
  8
Layer_1
 62
7
100
AcDbPolyline
 90
3
 70
0
 10
-822.284387
 20
819.028699
 30
0.0
 10
-822.418636
 20
805.428698
 30
0.0
 10
-830.818620
 20
784.628700
 30
0.0
  0
SPLINE
  5
102
100
AcDbEntity
  8
Layer_1
 62
7
100
AcDbSpline
 70
0
 71
3
 72
10
 73
6
 74
4
 40
0.000000
 40
0.000000
 40
0.000000
 40
0.000000
 40
95.618253
 40
202.288087
 40
317.955025
 40
317.955025
 40
317.955025
 40
317.955025
 10
-830.818620
 20
784.628700
 30
0.0
 10
-841.974824
 20
754.761131
 30
0.0
 10
-865.576669
 20
691.573892
 30
0.0
 10
-894.242491
 20
589.403444
 30
0.0
 10
-910.024127
 20
516.987700
 30
0.0
 10
-918.234255
 20
479.314636
 30
0.0
 11
-830.818620
 21
784.628700
 31
0.0
 11
-863.088713
 21
694.620414
 31
0.0
 11
-892.449973
 21
592.071061
 31
0.0
 11
-918.234255
 21
479.314636
 31
0.0
  0
SPLINE
  5
103
100
AcDbEntity
  8
Layer_1
 62
7
100
AcDbSpline
 70
0
 71
3
 72
16
 73
12
 74
10
 40
0.000000
 40
0.000000
 40
0.000000
 40
0.000000
 40
3.355543
 40
7.169979
 40
10.635520
 40
20.780933
 40
31.560675
 40
42.482761
 40
52.583360
 40
63.696563
 40
74.566936
 40
74.566936
 40
74.566936
 40
74.566936
 10
-926.242046
 20
453.369328
 30
0.0
 10
-926.964721
 20
452.514764
 30
0.0
 10
-928.508903
 20
450.688768
 30
0.0
 10
-930.520881
 20
447.765601
 30
0.0
 10
-933.606696
 20
442.834890
 30
0.0
 10
-935.839992
 20
434.781515
 30
0.0
 10
-935.226879
 20
424.051687
 30
0.0
 10
-931.514476
 20
413.880100
 30
0.0
 10
-924.480537
 20
405.639325
 30
0.0
 10
-916.059486
 20
398.881560
 30
0.0
 10
-909.315743
 20
395.941741
 30
0.0
 10
-905.981117
 20
394.488068
 30
0.0
 11
-926.242046
 21
453.369328
 31
0.0
 11
-928.368940
 21
450.773949
 31
0.0
 11
-930.562724
 21
447.653495
 31
0.0
 11
-932.348311
 21
444.683369
 31
0.0
 11
-935.236819
 21
434.957838
 31
0.0
 11
-934.707652
 21
424.191093
 31
0.0
 11
-930.838949
 21
413.977126
 31
0.0
 11
-924.492560
 21
406.119299
 31
0.0
 11
-915.746900
 21
399.262425
 31
0.0
 11
-905.981117
 21
394.488068
 31
0.0
  0
SPLINE
  5
104
100
AcDbEntity
  8
Layer_1
 62
7
100
AcDbSpline
 70
0
 71
3
 72
10
 73
6
 74
4
 40
0.000000
 40
0.000000
 40
0.000000
 40
0.000000
 40
8.579302
 40
17.960368
 40
26.263131
 40
26.263131
 40
26.263131
 40
26.263131
 10
-905.981117
 20
394.488068
 30
0.0
 10
-903.192492
 20
393.834944
 30
0.0
 10
-897.354636
 20
392.467658
 30
0.0
 10
-888.480133
 20
392.433389
 30
0.0
 10
-882.738045
 20
393.817191
 30
0.0
 10
-880.042069
 20
394.466903
 30
0.0
 11
-905.981117
 21
394.488068
 31
0.0
 11
-897.562514
 21
392.835332
 31
0.0
 11
-888.181451
 21
392.827902
 31
0.0
 11
-880.042069
 21
394.466903
 31
0.0
  0
SPLINE
  5
105
100
AcDbEntity
  8
Layer_1
 62
7
100
AcDbSpline
 70
0
 71
3
 72
13
 73
9
 74
7
 40
0.000000
 40
0.000000
 40
0.000000
 40
0.000000
 40
8.758475
 40
17.078927
 40
25.051209
 40
28.387587
 40
32.855673
 40
40.550170
 40
40.550170
 40
40.550170
 40
40.550170
 10
-880.042069
 20
394.466903
 30
0.0
 10
-877.355587
 20
395.647750
 30
0.0
 10
-872.116978
 20
397.950390
 30
0.0
 10
-865.764301
 20
403.560975
 30
0.0
 10
-862.037982
 20
409.044900
 30
0.0
 10
-860.231000
 20
414.027963
 30
0.0
 10
-859.857191
 20
419.219884
 30
0.0
 10
-859.815387
 20
423.267304
 30
0.0
 10
-859.788941
 20
425.827850
 30
0.0
 11
-880.042069
 21
394.466903
 31
0.0
 11
-872.221312
 21
398.409828
 31
0.0
 11
-865.946897
 21
403.874408
 31
0.0
 11
-861.581133
 21
410.545043
 31
0.0
 11
-860.489579
 21
413.697809
 31
0.0
 11
-859.968953
 21
418.135459
 31
0.0
 11
-859.788941
 21
425.827850
 31
0.0
  0
LWPOLYLINE
  5
106
100
AcDbEntity
  8
Layer_1
 62
7
100
AcDbPolyline
 90
3
 70
0
 10
-918.234255
 20
479.314636
 30
0.0
 10
-922.724878
 20
457.202132
 30
0.0
 10
-926.242046
 20
453.369328
 30
0.0
  0
SPLINE
  5
107
100
AcDbEntity
  8
Layer_1
 62
7
100
AcDbSpline
 70
0
 71
3
 72
16
 73
12
 74
10
 40
0.000000
 40
0.000000
 40
0.000000
 40
0.000000
 40
8.359263
 40
14.522907
 40
22.511178
 40
36.308177
 40
49.863664
 40
56.629039
 40
82.691984
 40
132.258373
 40
165.984647
 40
165.984647
 40
165.984647
 40
165.984647
 10
-859.788941
 20
425.827850
 30
0.0
 10
-859.786147
 20
428.616641
 30
0.0
 10
-859.781293
 20
433.461727
 30
0.0
 10
-858.765939
 20
440.924554
 30
0.0
 10
-856.200177
 20
449.880672
 30
0.0
 10
-852.871453
 20
461.270929
 30
0.0
 10
-849.100022
 20
471.693205
 30
0.0
 10
-844.542997
 20
487.546199
 30
0.0
 10
-808.933134
 20
482.407851
 30
0.0
 10
-777.541935
 20
494.019592
 30
0.0
 10
-749.556532
 20
497.565503
 30
0.0
 10
-738.224882
 20
499.001288
 30
0.0
 11
-859.788941
 21
425.827850
 31
0.0
 11
-859.565146
 21
434.184117
 31
0.0
 11
-858.722879
 21
440.289942
 31
0.0
 11
-856.726435
 21
448.024713
 31
0.0
 11
-852.734906
 21
461.231714
 31
0.0
 11
-848.460614
 21
474.095681
 31
0.0
 11
-845.973317
 21
480.387235
 31
0.0
 11
-820.394510
 21
485.387409
 31
0.0
 11
-771.551599
 21
493.825240
 31
0.0
 11
-738.224882
 21
499.001288
 31
0.0
  0
LWPOLYLINE
  5
108
100
AcDbEntity
  8
Layer_1
 62
7
100
AcDbPolyline
 90
3
 70
0
 10
-738.224882
 20
499.001288
 30
0.0
 10
-733.427996
 20
499.499732
 30
0.0
 10
-725.903017
 20
481.663778
 30
0.0
  0
SPLINE
  5
109
100
AcDbEntity
  8
Layer_1
 62
7
100
AcDbSpline
 70
0
 71
3
 72
34
 73
30
 74
28
 40
0.000000
 40
0.000000
 40
0.000000
 40
0.000000
 40
21.010906
 40
39.015965
 40
49.021859
 40
51.309321
 40
54.640194
 40
59.932546
 40
68.281693
 40
75.195158
 40
81.736955
 40
90.181369
 40
100.263671
 40
111.520748
 40
120.559954
 40
131.111556
 40
139.624980
 40
147.643507
 40
155.028924
 40
161.764667
 40
164.513638
 40
167.979033
 40
171.441639
 40
182.748692
 40
193.811008
 40
204.954594
 40
225.828824
 40
253.199460
 40
275.223526
 40
275.223526
 40
275.223526
 40
275.223526
 10
-725.903017
 20
481.663778
 30
0.0
 10
-723.115784
 20
475.242023
 30
0.0
 10
-717.940061
 20
463.317218
 30
0.0
 10
-711.237081
 20
448.377417
 30
0.0
 10
-706.432446
 20
439.532754
 30
0.0
 10
-703.950261
 20
434.908421
 30
0.0
 10
-703.507469
 20
431.238811
 30
0.0
 10
-703.173969
 20
425.622823
 30
0.0
 10
-702.631561
 20
418.756859
 30
0.0
 10
-700.573154
 20
411.732094
 30
0.0
 10
-696.943766
 20
405.297727
 30
0.0
 10
-690.582263
 20
399.640098
 30
0.0
 10
-681.605505
 20
395.247637
 30
0.0
 10
-671.810812
 20
392.409958
 30
0.0
 10
-661.530184
 20
391.551309
 30
0.0
 10
-652.170699
 20
391.468391
 30
0.0
 10
-643.115601
 20
391.934879
 30
0.0
 10
-635.398953
 20
394.299280
 30
0.0
 10
-629.042029
 20
398.159108
 30
0.0
 10
-625.126968
 20
402.409069
 30
0.0
 10
-623.402469
 20
406.387359
 30
0.0
 10
-622.422081
 20
409.462143
 30
0.0
 10
-621.034445
 20
415.390549
 30
0.0
 10
-621.049792
 20
424.140217
 30
0.0
 10
-624.459333
 20
435.110588
 30
0.0
 10
-634.371987
 20
445.757516
 30
0.0
 10
-645.927064
 20
461.801387
 30
0.0
 10
-656.850147
 20
482.732406
 30
0.0
 10
-661.707519
 20
498.483079
 30
0.0
 10
-663.873320
 20
505.505975
 30
0.0
 11
-725.903017
 21
481.663778
 31
0.0
 11
-717.495174
 21
462.408484
 31
0.0
 11
-709.890526
 21
446.088206
 31
0.0
 11
-705.206113
 21
437.246589
 31
0.0
 11
-704.226186
 21
435.179653
 31
0.0
 11
-703.614006
 21
431.905520
 31
0.0
 11
-703.220198
 21
426.627840
 31
0.0
 11
-702.283034
 21
418.331457
 31
0.0
 11
-700.284707
 21
411.713096
 31
0.0
 11
-697.007683
 21
406.051276
 31
0.0
 11
-690.814565
 21
400.310767
 31
0.0
 11
-681.859430
 21
395.678449
 31
0.0
 11
-671.027996
 21
392.612213
 31
0.0
 11
-662.035222
 21
391.697192
 31
0.0
 11
-651.484269
 21
391.580192
 31
0.0
 11
-643.001439
 21
392.301294
 31
0.0
 11
-635.342908
 21
394.676936
 31
0.0
 11
-629.068154
 21
398.572042
 31
0.0
 11
-624.674872
 21
403.677853
 31
0.0
 11
-623.536606
 21
406.180091
 31
0.0
 11
-622.465505
 21
409.475801
 31
0.0
 11
-621.693642
 21
412.851281
 31
0.0
 11
-621.628013
 21
424.158143
 31
0.0
 11
-625.158446
 21
434.641983
 31
0.0
 11
-631.995182
 21
443.441900
 31
0.0
 11
-644.309744
 21
460.296723
 31
0.0
 11
-656.815104
 21
484.643543
 31
0.0
 11
-663.873320
 21
505.505975
 31
0.0
  0
SPLINE
  5
10a
100
AcDbEntity
  8
Layer_1
 62
7
100
AcDbSpline
 70
0
 71
3
 72
22
 73
18
 74
16
 40
0.000000
 40
0.000000
 40
0.000000
 40
0.000000
 40
17.015676
 40
27.448853
 40
39.282806
 40
48.630109
 40
58.553075
 40
67.680588
 40
75.291866
 40
83.241133
 40
90.911228
 40
97.500621
 40
102.462536
 40
108.278558
 40
113.308247
 40
120.180338
 40
132.297185
 40
132.297185
 40
132.297185
 40
132.297185
 10
-651.442061
 20
509.354411
 30
0.0
 10
-645.750347
 20
509.448158
 30
0.0
 10
-636.568754
 20
509.599387
 30
0.0
 10
-624.011209
 20
515.523091
 30
0.0
 10
-619.781151
 20
525.843695
 30
0.0
 10
-617.405052
 20
535.867814
 30
0.0
 10
-617.293238
 20
545.428002
 30
0.0
 10
-618.843162
 20
554.265786
 30
0.0
 10
-622.393298
 20
561.752293
 30
0.0
 10
-626.621444
 20
568.274628
 30
0.0
 10
-631.684882
 20
573.700534
 30
0.0
 10
-636.517952
 20
577.963529
 30
0.0
 10
-641.857276
 20
580.465675
 30
0.0
 10
-647.171226
 20
580.880347
 30
0.0
 10
-653.084467
 20
580.894147
 30
0.0
 10
-660.959825
 20
579.236148
 30
0.0
 10
-667.093688
 20
577.706823
 30
0.0
 10
-671.007708
 20
576.730961
 30
0.0
 11
-651.442061
 21
509.354411
 31
0.0
 11
-634.523327
 21
511.168153
 31
0.0
 11
-625.367601
 21
516.170540
 31
0.0
 11
-619.828006
 21
526.627850
 31
0.0
 11
-617.777537
 21
535.747479
 31
0.0
 11
-617.610925
 21
545.669047
 31
0.0
 11
-619.357682
 21
554.627860
 31
0.0
 11
-622.486941
 21
561.566109
 31
0.0
 11
-626.858298
 21
568.205542
 31
0.0
 11
-632.028019
 21
573.871612
 31
0.0
 11
-637.137639
 21
578.032367
 31
0.0
 11
-641.660320
 21
580.073435
 31
0.0
 11
-647.428021
 21
580.821589
 31
0.0
 11
-652.457117
 21
580.744331
 31
0.0
 11
-659.228054
 21
579.569572
 31
0.0
 11
-671.007708
 21
576.730961
 31
0.0
  0
LWPOLYLINE
  5
10b
100
AcDbEntity
  8
Layer_1
 62
7
100
AcDbPolyline
 90
3
 70
0
 10
-663.873320
 20
505.505975
 30
0.0
 10
-664.393625
 20
508.784096
 30
0.0
 10
-651.442061
 20
509.354411
 30
0.0
  0
SPLINE
  5
10c
100
AcDbEntity
  8
Layer_1
 62
7
100
AcDbSpline
 70
0
 71
3
 72
16
 73
12
 74
10
 40
0.000000
 40
0.000000
 40
0.000000
 40
0.000000
 40
9.161016
 40
15.757027
 40
18.365151
 40
26.090929
 40
44.248254
 40
67.297638
 40
124.376544
 40
177.721409
 40
227.264020
 40
227.264020
 40
227.264020
 40
227.264020
 10
-671.007708
 20
576.730961
 30
0.0
 10
-674.006408
 20
575.955853
 30
0.0
 10
-679.164198
 20
574.622661
 30
0.0
 10
-684.837896
 20
573.573750
 30
0.0
 10
-691.021005
 20
571.661295
 30
0.0
 10
-690.786794
 20
585.729680
 30
0.0
 10
-697.042010
 20
598.043311
 30
0.0
 10
-704.277931
 20
631.627172
 30
0.0
 10
-715.281749
 20
673.781154
 30
0.0
 10
-725.718929
 20
726.399752
 30
0.0
 10
-730.640825
 20
760.308057
 30
0.0
 10
-733.010827
 20
776.635661
 30
0.0
 11
-671.007708
 21
576.730961
 31
0.0
 11
-679.905837
 21
574.552080
 31
0.0
 11
-686.335937
 21
573.081991
 31
0.0
 11
-688.906129
 21
572.638791
 31
0.0
 11
-691.186293
 21
580.020422
 31
0.0
 11
-695.982896
 21
597.532734
 31
0.0
 11
-701.831116
 21
619.827855
 31
0.0
 11
-715.082229
 21
675.347307
 31
0.0
 11
-725.485527
 21
727.667915
 31
0.0
 11
-733.010827
 21
776.635661
 31
0.0
  0
LWPOLYLINE
  5
10d
100
AcDbEntity
  8
Layer_1
 62
7
100
AcDbPolyline
 90
3
 70
0
 10
-733.010827
 20
776.635661
 30
0.0
 10
-734.659245
 20
789.441916
 30
0.0
 10
-731.126445
 20
796.305973
 30
0.0
  0
SPLINE
  5
10e
100
AcDbEntity
  8
Layer_1
 62
7
100
AcDbSpline
 70
0
 71
3
 72
22
 73
18
 74
16
 40
0.000000
 40
0.000000
 40
0.000000
 40
0.000000
 40
9.589101
 40
18.672922
 40
28.720369
 40
34.523846
 40
38.380423
 40
42.103614
 40
51.163921
 40
60.706686
 40
71.324630
 40
80.061703
 40
89.006959
 40
100.452698
 40
104.075697
 40
107.144072
 40
109.756850
 40
109.756850
 40
109.756850
 40
109.756850
 10
-731.126445
 20
796.305973
 30
0.0
 10
-729.760889
 20
799.205663
 30
0.0
 10
-727.101730
 20
804.852247
 30
0.0
 10
-725.131403
 20
814.315587
 30
0.0
 10
-725.057542
 20
822.650867
 30
0.0
 10
-725.318972
 20
829.211230
 30
0.0
 10
-726.041325
 20
833.646887
 30
0.0
 10
-728.284861
 20
838.753665
 30
0.0
 10
-732.522302
 20
844.986546
 30
0.0
 10
-740.229170
 20
851.160290
 30
0.0
 10
-749.044072
 20
855.185994
 30
0.0
 10
-758.075512
 20
857.982880
 30
0.0
 10
-767.695558
 20
859.498396
 30
0.0
 10
-775.697163
 20
859.886292
 30
0.0
 10
-781.738983
 20
860.087096
 30
0.0
 10
-784.839831
 20
860.161317
 30
0.0
 10
-786.733608
 20
860.154444
 30
0.0
 10
-787.604561
 20
860.151283
 30
0.0
 11
-731.126445
 21
796.305973
 31
0.0
 11
-727.393204
 21
805.138514
 31
0.0
 11
-725.480633
 21
814.018710
 31
0.0
 11
-725.148321
 21
824.060659
 31
0.0
 11
-725.486733
 21
829.854261
 31
0.0
 11
-726.207176
 21
833.642949
 31
0.0
 11
-727.624879
 21
837.085661
 31
0.0
 11
-732.757040
 21
844.552258
 31
0.0
 11
-740.132117
 21
850.608050
 31
0.0
 11
-749.699890
 21
855.212227
 31
0.0
 11
-758.057159
 21
857.760267
 31
0.0
 11
-766.881262
 21
859.227512
 31
0.0
 11
-778.302992
 21
859.968475
 31
0.0
 11
-781.924046
 21
860.087166
 31
0.0
 11
-784.991784
 21
860.149726
 31
0.0
 11
-787.604561
 21
860.151283
 31
0.0
  0
LWPOLYLINE
  5
10f
100
AcDbEntity
  8
Layer_1
 62
7
100
AcDbPolyline
 90
2
 70
0
 10
-787.604561
 20
860.151283
 30
0.0
 10
-787.604682
 20
860.152139
 30
0.0
  0
SPLINE
  5
110
100
AcDbEntity
  8
Layer_1
 62
7
100
AcDbSpline
 70
0
 71
3
 72
34
 73
30
 74
28
 40
0.000000
 40
0.000000
 40
0.000000
 40
0.000000
 40
3.390257
 40
12.695651
 40
25.913739
 40
62.336622
 40
98.089428
 40
123.256112
 40
129.713752
 40
134.358251
 40
136.185403
 40
141.392994
 40
154.879417
 40
173.725233
 40
192.725059
 40
206.615386
 40
212.389841
 40
213.164320
 40
213.916235
 40
215.227303
 40
217.794749
 40
222.381034
 40
227.993243
 40
255.753960
 40
288.404130
 40
322.345409
 40
341.334217
 40
358.392725
 40
366.499108
 40
366.499108
 40
366.499108
 40
366.499108
 10
-787.503088
 20
694.038077
 30
0.0
 10
-787.148171
 20
692.964670
 30
0.0
 10
-785.819096
 20
688.945030
 30
0.0
 10
-784.076327
 20
680.468172
 30
0.0
 10
-779.830030
 20
661.291885
 30
0.0
 10
-774.017380
 20
633.445451
 30
0.0
 10
-766.831676
 20
601.705736
 30
0.0
 10
-761.984666
 20
579.982765
 30
0.0
 10
-758.841261
 20
568.068265
 30
0.0
 10
-758.135073
 20
564.111976
 30
0.0
 10
-756.664379
 20
559.787024
 30
0.0
 10
-767.075968
 20
561.005694
 30
0.0
 10
-776.572580
 20
556.930280
 30
0.0
 10
-794.724500
 20
554.890865
 30
0.0
 10
-811.228849
 20
551.433936
 30
0.0
 10
-824.301390
 20
549.975028
 30
0.0
 10
-830.630426
 20
548.034639
 30
0.0
 10
-833.313779
 20
548.300433
 30
0.0
 10
-833.627698
 20
549.337686
 30
0.0
 10
-833.333130
 20
550.829357
 30
0.0
 10
-832.902910
 20
553.633860
 30
0.0
 10
-832.200780
 20
557.822366
 30
0.0
 10
-830.248607
 20
570.330818
 30
0.0
 10
-825.419166
 20
591.830061
 30
0.0
 10
-816.452599
 20
621.991382
 30
0.0
 10
-806.826572
 20
648.866810
 30
0.0
 10
-797.890843
 20
670.415776
 30
0.0
 10
-792.306041
 20
684.039994
 30
0.0
 10
-788.673304
 20
691.602093
 30
0.0
 10
-787.503088
 20
694.038077
 30
0.0
 11
-787.503088
 21
694.038077
 31
0.0
 11
-786.472228
 21
690.808346
 31
0.0
 11
-784.321075
 21
681.755009
 31
0.0
 11
-781.515591
 21
668.838077
 31
0.0
 11
-773.866079
 21
633.227526
 31
0.0
 11
-766.089676
 21
598.330668
 31
0.0
 11
-760.343735
 21
573.828707
 31
0.0
 11
-758.804502
 21
567.557193
 31
0.0
 11
-757.743519
 21
563.035503
 31
0.0
 11
-757.390594
 21
561.242759
 31
0.0
 11
-762.506602
 21
560.270408
 31
0.0
 11
-775.782955
 21
557.899323
 31
0.0
 11
-794.345272
 21
554.642767
 31
0.0
 11
-813.068361
 21
551.411769
 31
0.0
 11
-826.766237
 21
549.107558
 31
0.0
 11
-832.473419
 21
548.228697
 31
0.0
 11
-833.221118
 21
548.430599
 31
0.0
 11
-833.518082
 21
549.121386
 31
0.0
 11
-833.418724
 21
550.428684
 31
0.0
 11
-833.001669
 21
552.962030
 31
0.0
 11
-832.264574
 21
557.488696
 31
0.0
 11
-831.367166
 21
563.028692
 31
0.0
 11
-825.497630
 21
590.161807
 31
0.0
 11
-816.296003
 21
621.488531
 31
0.0
 11
-804.814020
 21
653.428702
 31
0.0
 11
-797.656283
 21
671.016812
 31
0.0
 11
-790.967067
 21
686.709074
 31
0.0
 11
-787.503088
 21
694.038077
 31
0.0
  0
LWPOLYLINE
  5
111
100
AcDbEntity
  8
Layer_1
 62
7
100
AcDbPolyline
 90
1
 70
1
 10
-787.503088
 20
694.038077
 30
0.0
  0
ENDSEC
  0
SECTION
  2
OBJECTS
  0
DICTIONARY
  5
C
330
0
100
AcDbDictionary
  3
ACAD_GROUP
350
D
  3
ACAD_MLINESTYLE
350
17
  0
DICTIONARY
  5
D
330
C
100
AcDbDictionary
  0
DICTIONARY
  5
1A
330
C
100
AcDbDictionary
  0
DICTIONARY
  5
17
330
C
100
AcDbDictionary
  3
STANDARD
350
18
  0
DICTIONARY
  5
19
330
C
100
AcDbDictionary
  0
ENDSEC
  0
EOF
