<?xml version="1.0" encoding="UTF-8" standalone="no"?>
<!-- Created with Inkscape (http://www.inkscape.org/) -->

<svg
   xmlns:dc="http://purl.org/dc/elements/1.1/"
   xmlns:cc="http://creativecommons.org/ns#"
   xmlns:rdf="http://www.w3.org/1999/02/22-rdf-syntax-ns#"
   xmlns:svg="http://www.w3.org/2000/svg"
   xmlns="http://www.w3.org/2000/svg"
   xmlns:sodipodi="http://sodipodi.sourceforge.net/DTD/sodipodi-0.dtd"
   xmlns:inkscape="http://www.inkscape.org/namespaces/inkscape"
   width="210mm"
   height="297mm"
   viewBox="0 0 210 297"
   version="1.1"
   id="svg8"
   inkscape:version="0.92.2 5c3e80d, 2017-08-06"
   sodipodi:docname="A.svg">
  <defs
     id="defs2" />
  <sodipodi:namedview
     id="base"
     pagecolor="#ffffff"
     bordercolor="#666666"
     borderopacity="1.0"
     inkscape:pageopacity="0.0"
     inkscape:pageshadow="2"
     inkscape:zoom="0.35"
     inkscape:cx="8.5714286"
     inkscape:cy="560"
     inkscape:document-units="mm"
     inkscape:current-layer="layer1"
     showgrid="false"
     inkscape:window-width="1680"
     inkscape:window-height="973"
     inkscape:window-x="0"
     inkscape:window-y="1"
     inkscape:window-maximized="1" />
  <metadata
     id="metadata5">
    <rdf:RDF>
      <cc:Work
         rdf:about="">
        <dc:format>image/svg+xml</dc:format>
        <dc:type
           rdf:resource="http://purl.org/dc/dcmitype/StillImage" />
        <dc:title></dc:title>
      </cc:Work>
    </rdf:RDF>
  </metadata>
  <g
     inkscape:label="Layer 1"
     inkscape:groupmode="layer"
     id="layer1">
    <path
       style="fill:#000000;stroke-width:0.26458335"
       d="m -260.48384,12.5226 c -1.33288,0.01685 -2.17445,0.123621 -3.20291,0.352436 -3.74565,0.833329 -6.3868,3.267612 -7.65431,7.053831 -0.48226,1.440561 -0.57467,2.375434 -0.61237,6.194454 l -0.0444,4.497917 -2.77812,6.879166 c -11.08002,27.43721 -21.04845,62.253846 -28.9109,100.976266 l -1.48518,7.31325 -1.16323,1.26762 c -0.63999,0.69708 -1.54885,1.98971 -2.01952,2.8727 -1.52909,2.86861 -1.32393,7.04453 0.49919,10.15545 1.55014,2.6451 4.97473,5.33019 8.22121,6.4456 2.38213,0.81856 6.33519,0.82145 8.5788,0.007 2.80232,-1.01762 5.01725,-2.94669 6.10557,-5.31751 0.48081,-1.0474 0.56413,-1.75499 0.59273,-5.05447 0.0308,-3.56348 0.10266,-4.08599 1.01286,-7.34115 1.04518,-3.73792 3.25743,-10.39602 3.55637,-10.70323 0.33734,-0.34667 31.45452,-5.72229 35.63555,-6.15621 l 1.58647,-0.16485 2.48873,5.89887 c 2.68015,6.35273 6.01209,13.50349 6.84507,14.69006 0.40137,0.57176 0.5462,1.34734 0.6568,3.51193 0.15845,3.10088 0.73542,5.01138 2.05466,6.80527 1.49386,2.03133 4.79734,3.74005 8.59224,4.44469 2.31673,0.43017 7.20545,0.48433 9.2692,0.10283 2.70686,-0.50039 4.97414,-1.90775 6.06113,-3.76256 0.36198,-0.61767 0.80577,-1.98304 0.98598,-3.03392 0.64831,-3.7807 -0.63111,-7.58019 -3.40702,-10.11721 -3.41969,-3.1254 -9.73098,-15.41285 -10.54303,-20.5264 l -0.17208,-1.08417 4.28346,-0.18862 c 7.33641,-0.32241 8.7644,-1.1024 10.45569,-5.71283 0.98642,-2.68897 1.05291,-6.65123 0.15555,-9.26042 -0.78062,-2.26973 -2.39757,-4.72586 -4.19045,-6.36447 -1.98892,-1.81775 -2.77784,-2.17378 -5.09323,-2.29856 -1.73538,-0.0935 -2.7142,0.0765 -7.79849,1.35289 -3.19755,0.80276 -5.86123,1.4117 -5.91953,1.3534 -0.1765,-0.1765 -2.32808,-8.031811 -4.27467,-15.6068 -4.85013,-18.873898 -8.30245,-36.237277 -10.31204,-51.860915 l -0.54518,-4.235402 1.1684,-2.270144 c 1.56227,-3.03612 2.10205,-5.543184 1.97714,-9.179284 -0.0835,-2.430542 -0.20014,-3.043468 -0.81907,-4.307748 -1.32092,-2.69822 -3.77945,-4.716793 -7.30085,-5.994984 -2.9217,-1.060519 -5.01792,-1.408991 -9.45988,-1.57303 -1.29993,-0.048 -2.27657,-0.07057 -3.0763,-0.06046 z m 0.0336,54.938765 c 0.10431,-0.110929 0.99555,3.639545 1.98024,8.334375 2.2711,10.828182 5.6754,26.10509 7.00215,31.42237 0.56282,2.25559 1.00239,4.12884 0.97669,4.16254 -0.0257,0.0337 -5.52566,1.01593 -12.22199,2.18281 -6.69634,1.16688 -12.37086,2.12132 -12.61009,2.12132 -0.32782,0 -0.40504,-0.17922 -0.31264,-0.7276 0.0674,-0.40019 0.37281,-2.27542 0.67851,-4.16719 1.27427,-7.88555 4.72333,-19.62762 8.7819,-29.89792 2.14084,-5.41742 5.41684,-13.102764 5.72523,-13.430705 z"
       id="path25"
       inkscape:connector-curvature="0" />
  </g>
</svg>
