<?xml version="1.0" encoding="UTF-8" standalone="no"?>
<!-- Created with Inkscape (http://www.inkscape.org/) -->

<svg
   xmlns:dc="http://purl.org/dc/elements/1.1/"
   xmlns:cc="http://creativecommons.org/ns#"
   xmlns:rdf="http://www.w3.org/1999/02/22-rdf-syntax-ns#"
   xmlns:svg="http://www.w3.org/2000/svg"
   xmlns="http://www.w3.org/2000/svg"
   xmlns:sodipodi="http://sodipodi.sourceforge.net/DTD/sodipodi-0.dtd"
   xmlns:inkscape="http://www.inkscape.org/namespaces/inkscape"
   width="210mm"
   height="297mm"
   viewBox="0 0 210 297"
   version="1.1"
   id="svg8"
   sodipodi:docname="ABC.svg"
   inkscape:version="0.92.2 5c3e80d, 2017-08-06">
  <defs
     id="defs2" />
  <sodipodi:namedview
     id="base"
     pagecolor="#ffffff"
     bordercolor="#666666"
     borderopacity="1.0"
     inkscape:pageopacity="0.0"
     inkscape:pageshadow="2"
     inkscape:zoom="0.49497475"
     inkscape:cx="445.02278"
     inkscape:cy="608.42187"
     inkscape:document-units="mm"
     inkscape:current-layer="layer1"
     showgrid="false"
     inkscape:window-width="1680"
     inkscape:window-height="973"
     inkscape:window-x="0"
     inkscape:window-y="1"
     inkscape:window-maximized="1" />
  <metadata
     id="metadata5">
    <rdf:RDF>
      <cc:Work
         rdf:about="">
        <dc:format>image/svg+xml</dc:format>
        <dc:type
           rdf:resource="http://purl.org/dc/dcmitype/StillImage" />
        <dc:title></dc:title>
      </cc:Work>
    </rdf:RDF>
  </metadata>
  <g
     inkscape:label="Layer 1"
     inkscape:groupmode="layer"
     id="layer1">
    <path
       style="fill:#000000;stroke-width:1.00000012"
       d="M 76.216797 216.125 C 62.578496 215.98017 57.580492 217.5492 51.121094 223.99609 C 44.611292 230.49329 41.619019 237.94278 40.949219 249.32422 C 40.080721 264.08316 43.860033 279.82333 51.707031 294.12109 L 55.716797 301.42578 L 55.716797 325.22266 C 55.718294 338.31105 56.16935 364.31952 56.71875 383.01953 C 61.410848 542.72082 66.035393 637.72542 71.308594 682.74609 L 72.916016 696.47266 L 67.849609 702.15625 C 60.558009 710.33723 58.353015 715.44899 58.373047 724.12305 C 58.386544 729.99205 58.941608 732.40853 61.566406 738.01758 C 70.253008 756.5805 90.963743 777.80472 110.71484 788.38672 C 118.99235 792.82158 133.48812 797.97484 141.82812 799.44727 L 141.83008 799.44727 C 144.79268 799.97035 150.90265 800.28393 155.40625 800.14258 C 162.53755 799.91872 164.55481 799.40887 171.03711 796.20508 C 183.29911 790.14487 187.9098 784.31257 203.2168 755.49609 C 216.0074 731.41706 216.38599 730.84499 226.7168 719.92578 C 232.4918 713.82192 252.38815 692.88208 270.93164 673.39453 C 308.01534 634.42284 311.99847 629.80088 324.23828 611.51953 C 338.05287 590.8863 347.44965 569.96212 350.80273 552.36914 C 354.15453 534.78315 351.36325 512.98558 343.71484 497.01953 C 339.21316 487.62211 333.43261 481.23545 323.76953 474.98438 C 313.95123 468.63295 311.03091 467.52838 274.82617 456.4668 C 257.01099 451.02375 242.21781 446.35441 241.95312 446.08984 C 241.68843 445.82509 245.73757 440.93984 250.95117 435.23438 C 286.78148 396.0234 307.44827 360.10704 315.90039 322.36328 C 317.85539 313.63356 318.22228 309.21089 318.21094 294.01953 C 318.20542 278.3741 317.91293 275.00826 315.9707 268.29102 C 308.5098 242.48788 295.39063 228.79778 271.86133 222.25977 C 260.58484 219.12639 229.5497 219.16392 211.7168 222.33203 C 194.5536 225.3812 175.67029 230.35667 153.52539 237.66602 L 134.83203 243.83594 L 126.65234 236.14062 C 112.81374 223.12223 95.704997 216.33212 76.216797 216.125 z M 203.86133 305.86719 C 210.46992 305.67238 215.09875 308.12384 216.67578 312.90234 C 221.53478 327.62515 193.19876 373.26692 156.84766 409.26953 C 150.04496 416.00703 144.151 421.51953 143.75 421.51953 C 143.069 421.51953 142.68454 412.27464 141.08594 357.51953 L 140.45703 336.01953 L 153.83594 327.82422 C 170.01544 317.91313 187.92941 309.17913 196.63281 306.95703 C 199.23599 306.29241 201.65847 305.93212 203.86133 305.86719 z M 228.4707 527.18359 C 241.8034 527.35935 248.42009 530.45874 251.80859 537.91992 C 254.08359 542.92931 254.16582 546.32374 252.19922 554.06055 C 249.93172 562.98084 244.48155 573.3368 236.03516 584.77539 C 226.17186 598.13269 194.22521 629.89624 172.91602 647.53125 C 163.95151 654.95012 156.03587 661.15149 155.32617 661.3125 C 154.00047 661.61293 153.94902 660.35108 152.10352 582.51953 L 151.49805 557.01953 L 159.06445 551.51953 C 181.63545 535.11264 202.41555 527.5257 225.71484 527.18555 C 226.66443 527.17169 227.58186 527.17188 228.4707 527.18359 z "
       transform="scale(0.26458333)"
       id="path33" />
    <path
       style="fill:#000000;stroke-width:0.26458335"
       d="m 272.92567,208.62417 c -4.11882,-0.46895 -8.61439,-1.82134 -11.56542,-3.47919 -3.92157,-2.2031 -8.43441,-6.43941 -11.09532,-10.41546 -1.81819,-2.71683 -5.01563,-9.27099 -6.25375,-12.81901 -3.80841,-10.91375 -5.69291,-24.4518 -5.69598,-40.91918 -0.004,-19.75472 2.6097,-37.8248 7.82223,-54.08752 6.17698,-19.27164 14.16322,-29.68405 24.45572,-31.88517 2.68992,-0.57525 9.2641,-0.49408 12.44246,0.15363 9.48354,1.93262 16.25595,8.43503 20.86097,20.02927 2.15347,5.42192 4.45227,13.5536 6.11788,21.64117 0.44955,2.18281 1.40435,5.78222 2.1218,7.99868 1.71177,5.28837 2.03208,7.03664 1.62319,8.85961 -0.71123,3.17097 -2.80747,5.47856 -6.65379,7.32468 -1.93567,0.92907 -2.05907,0.95196 -5.02709,0.93261 -2.77159,-0.0181 -3.29403,-0.10511 -5.86319,-0.97689 -6.34452,-2.15282 -11.17751,-5.52618 -12.51974,-8.73861 -0.68429,-1.63774 -0.50554,-3.10667 0.78814,-6.47651 1.33736,-3.48364 1.38205,-3.96111 0.77668,-8.30131 -1.16215,-8.3323 -4.19412,-15.87547 -7.10401,-17.67388 -3.19672,-1.97567 -5.80874,1.41146 -8.21946,10.65846 -4.02746,15.44851 -6.80868,43.89172 -5.99345,61.2942 0.82084,17.52232 3.56658,29.80671 7.48911,33.50631 1.48691,1.40242 2.50873,1.7944 3.7265,1.42955 3.36698,-1.00878 8.38515,-9.74182 12.32104,-21.44211 l 1.46857,-4.36563 0.0322,-3.96874 c 0.0278,-3.42975 0.1121,-4.17167 0.62061,-5.46288 1.81522,-4.60915 6.34701,-6.59344 14.23876,-6.23459 9.68708,0.44049 14.15688,4.31425 13.06894,11.32618 -0.3995,2.57487 -1.50932,4.80019 -3.45044,6.91858 -1.34201,1.46458 -1.8148,2.26165 -2.89332,4.87772 -7.28612,17.67358 -15.52281,30.68484 -23.03899,36.39402 -1.91188,1.45225 -5.31606,3.16665 -7.15052,3.60112 -1.79602,0.42537 -5.16271,0.56134 -7.4503,0.30089 z"
       id="path27" />
    <path
       style="fill:#000000;stroke-width:0.26458335"
       d="m -260.48384,12.5226 c -1.33288,0.01685 -2.17445,0.123621 -3.20291,0.352436 -3.74565,0.833329 -6.3868,3.267612 -7.65431,7.053831 -0.48226,1.440561 -0.57467,2.375434 -0.61237,6.194454 l -0.0444,4.497917 -2.77812,6.879166 c -11.08002,27.43721 -21.04845,62.253846 -28.9109,100.976266 l -1.48518,7.31325 -1.16323,1.26762 c -0.63999,0.69708 -1.54885,1.98971 -2.01952,2.8727 -1.52909,2.86861 -1.32393,7.04453 0.49919,10.15545 1.55014,2.6451 4.97473,5.33019 8.22121,6.4456 2.38213,0.81856 6.33519,0.82145 8.5788,0.007 2.80232,-1.01762 5.01725,-2.94669 6.10557,-5.31751 0.48081,-1.0474 0.56413,-1.75499 0.59273,-5.05447 0.0308,-3.56348 0.10266,-4.08599 1.01286,-7.34115 1.04518,-3.73792 3.25743,-10.39602 3.55637,-10.70323 0.33734,-0.34667 31.45452,-5.72229 35.63555,-6.15621 l 1.58647,-0.16485 2.48873,5.89887 c 2.68015,6.35273 6.01209,13.50349 6.84507,14.69006 0.40137,0.57176 0.5462,1.34734 0.6568,3.51193 0.15845,3.10088 0.73542,5.01138 2.05466,6.80527 1.49386,2.03133 4.79734,3.74005 8.59224,4.44469 2.31673,0.43017 7.20545,0.48433 9.2692,0.10283 2.70686,-0.50039 4.97414,-1.90775 6.06113,-3.76256 0.36198,-0.61767 0.80577,-1.98304 0.98598,-3.03392 0.64831,-3.7807 -0.63111,-7.58019 -3.40702,-10.11721 -3.41969,-3.1254 -9.73098,-15.41285 -10.54303,-20.5264 l -0.17208,-1.08417 4.28346,-0.18862 c 7.33641,-0.32241 8.7644,-1.1024 10.45569,-5.71283 0.98642,-2.68897 1.05291,-6.65123 0.15555,-9.26042 -0.78062,-2.26973 -2.39757,-4.72586 -4.19045,-6.36447 -1.98892,-1.81775 -2.77784,-2.17378 -5.09323,-2.29856 -1.73538,-0.0935 -2.7142,0.0765 -7.79849,1.35289 -3.19755,0.80276 -5.86123,1.4117 -5.91953,1.3534 -0.1765,-0.1765 -2.32808,-8.031811 -4.27467,-15.6068 -4.85013,-18.873898 -8.30245,-36.237277 -10.31204,-51.860915 l -0.54518,-4.235402 1.1684,-2.270144 c 1.56227,-3.03612 2.10205,-5.543184 1.97714,-9.179284 -0.0835,-2.430542 -0.20014,-3.043468 -0.81907,-4.307748 -1.32092,-2.69822 -3.77945,-4.716793 -7.30085,-5.994984 -2.9217,-1.060519 -5.01792,-1.408991 -9.45988,-1.57303 -1.29993,-0.048 -2.27657,-0.07057 -3.0763,-0.06046 z m 0.0336,54.938765 c 0.10431,-0.110929 0.99555,3.639545 1.98024,8.334375 2.2711,10.828182 5.6754,26.10509 7.00215,31.42237 0.56282,2.25559 1.00239,4.12884 0.97669,4.16254 -0.0257,0.0337 -5.52566,1.01593 -12.22199,2.18281 -6.69634,1.16688 -12.37086,2.12132 -12.61009,2.12132 -0.32782,0 -0.40504,-0.17922 -0.31264,-0.7276 0.0674,-0.40019 0.37281,-2.27542 0.67851,-4.16719 1.27427,-7.88555 4.72333,-19.62762 8.7819,-29.89792 2.14084,-5.41742 5.41684,-13.102764 5.72523,-13.430705 z"
       id="path25"
       inkscape:connector-curvature="0" />
  </g>
</svg>
