  0
SECTION
  2
HEADER
  9
$ACADVER
  1
AC1014
  9
$HANDSEED
  5
FFFF
  9
$MEASUREMENT
 70
     1
  0
ENDSEC
  0
SECTION
  2
TABLES
  0
TABLE
  2
VPORT
  5
8
330
0
100
AcDbSymbolTable
 70
     4
  0
VPORT
  5
2E
330
8
100
AcDbSymbolTableRecord
100
AcDbViewportTableRecord
  2
*ACTIVE
 70
     0
 10
0.0
 20
0.0
 11
1.0
 21
1.0
 12
210.0
 22
148.5
 13
0.0
 23
0.0
 14
10.0
 24
10.0
 15
10.0
 25
10.0
 16
0.0
 26
0.0
 36
1.0
 17
0.0
 27
0.0
 37
0.0
 40
341.0
 41
1.24
 42
50.0
 43
0.0
 44
0.0
 50
0.0
 51
0.0
 71
     0
 72
   100
 73
     1
 74
     3
 75
     0
 76
     0
 77
     0
 78
     0
  0
ENDTAB
  0
TABLE
  2
LTYPE
  5
5
330
0
100
AcDbSymbolTable
 70
     1
  0
LTYPE
  5
14
330
5
100
AcDbSymbolTableRecord
100
AcDbLinetypeTableRecord
  2
BYBLOCK
 70
     0
  3

 72
    65
 73
     0
 40
0.0
  0
LTYPE
  5
15
330
5
100
AcDbSymbolTableRecord
100
AcDbLinetypeTableRecord
  2
BYLAYER
 70
     0
  3

 72
    65
 73
     0
 40
0.0
  0
LTYPE
  5
16
330
5
100
AcDbSymbolTableRecord
100
AcDbLinetypeTableRecord
  2
CONTINUOUS
 70
     0
  3
Solid line
 72
    65
 73
     0
 40
0.0
  0
ENDTAB
  0
TABLE
  2
LAYER
  5
2
100
AcDbSymbolTable
 70
2
  0
LAYER
  5
50
100
AcDbSymbolTableRecord
100
AcDbLayerTableRecord
  2
0
 70
0
  6
CONTINUOUS
  0
LAYER
  5
51
100
AcDbSymbolTableRecord
100
AcDbLayerTableRecord
  2
Layer_1
 70
0
  6
CONTINUOUS
  0
ENDTAB
  0
TABLE
  2
STYLE
  5
3
330
0
100
AcDbSymbolTable
 70
     1
  0
STYLE
  5
11
330
3
100
AcDbSymbolTableRecord
100
AcDbTextStyleTableRecord
  2
STANDARD
 70
     0
 40
0.0
 41
1.0
 50
0.0
 71
     0
 42
2.5
  3
txt
  4

  0
ENDTAB
  0
TABLE
  2
VIEW
  5
6
330
0
100
AcDbSymbolTable
 70
     0
  0
ENDTAB
  0
TABLE
  2
UCS
  5
7
330
0
100
AcDbSymbolTable
 70
     0
  0
ENDTAB
  0
TABLE
  2
APPID
  5
9
330
0
100
AcDbSymbolTable
 70
     2
  0
APPID
  5
12
330
9
100
AcDbSymbolTableRecord
100
AcDbRegAppTableRecord
  2
ACAD
 70
     0
  0
ENDTAB
  0
TABLE
  2
DIMSTYLE
  5
A
330
0
100
AcDbSymbolTable
 70
     1
  0
DIMSTYLE
105
27
330
A
100
AcDbSymbolTableRecord
100
AcDbDimStyleTableRecord
  2
ISO-25
 70
     0
  3

  4

  5

  6

  7

 40
1.0
 41
2.5
 42
0.625
 43
3.75
 44
1.25
 45
0.0
 46
0.0
 47
0.0
 48
0.0
140
2.5
141
2.5
142
0.0
143
0.03937007874016
144
1.0
145
0.0
146
1.0
147
0.625
 71
     0
 72
     0
 73
     0
 74
     0
 75
     0
 76
     0
 77
     1
 78
     8
170
     0
171
     3
172
     1
173
     0
174
     0
175
     0
176
     0
177
     0
178
     0
270
     2
271
     2
272
     2
273
     2
274
     3
340
11
275
     0
280
     0
281
     0
282
     0
283
     0
284
     8
285
     0
286
     0
287
     3
288
     0
  0
ENDTAB
  0
TABLE
  2
BLOCK_RECORD
  5
1
330
0
100
AcDbSymbolTable
 70
     1
  0
BLOCK_RECORD
  5
1F
330
1
100
AcDbSymbolTableRecord
100
AcDbBlockTableRecord
  2
*MODEL_SPACE
  0
BLOCK_RECORD
  5
1B
330
1
100
AcDbSymbolTableRecord
100
AcDbBlockTableRecord
  2
*PAPER_SPACE
  0
ENDTAB
  0
ENDSEC
  0
SECTION
  2
BLOCKS
  0
BLOCK
  5
20
330
1F
100
AcDbEntity
  8
0
100
AcDbBlockBegin
  2
*MODEL_SPACE
 70
     0
 10
0.0
 20
0.0
 30
0.0
  3
*MODEL_SPACE
  1

  0
ENDBLK
  5
21
330
1F
100
AcDbEntity
  8
0
100
AcDbBlockEnd
  0
BLOCK
  5
1C
330
1B
100
AcDbEntity
 67
     1
  8
0
100
AcDbBlockBegin
  2
*PAPER_SPACE
  1

  0
ENDBLK
  5
1D
330
1B
100
AcDbEntity
 67
     1
  8
0
100
AcDbBlockEnd
  0
ENDSEC
  0
SECTION
  2
ENTITIES
  0
SPLINE
  5
100
100
AcDbEntity
  8
Layer_1
 62
7
100
AcDbSpline
 70
0
 71
3
 72
16
 73
12
 74
10
 40
0.000000
 40
0.000000
 40
0.000000
 40
0.000000
 40
8.916484
 40
15.302818
 40
21.735827
 40
28.751994
 40
35.840241
 40
44.071715
 40
56.080305
 40
68.513449
 40
81.353804
 40
81.353804
 40
81.353804
 40
81.353804
 10
60.973437
 20
725.115750
 30
0.0
 10
57.996330
 20
725.132574
 30
0.0
 10
52.886902
 20
725.161448
 30
0.0
 10
45.736048
 20
723.171754
 30
0.0
 10
40.598153
 20
718.820726
 30
0.0
 10
36.264050
 20
713.449611
 30
0.0
 10
33.549482
 20
706.394935
 30
0.0
 10
32.407394
 20
697.307425
 30
0.0
 10
32.936635
 20
686.373681
 30
0.0
 10
35.796699
 20
674.173255
 30
0.0
 10
39.489483
 20
666.577797
 30
0.0
 10
41.365624
 20
662.718879
 30
0.0
 11
60.973437
 21
725.115750
 31
0.0
 11
52.067566
 21
724.680837
 31
0.0
 11
45.973997
 21
722.769376
 31
0.0
 11
40.896875
 21
718.818878
 31
0.0
 11
36.591632
 21
713.278888
 31
0.0
 11
33.949950
 21
706.701293
 31
0.0
 11
32.759375
 21
698.556375
 31
0.0
 11
33.286804
 21
686.559373
 31
0.0
 11
36.189931
 21
674.469918
 31
0.0
 11
41.365624
 21
662.718879
 31
0.0
  0
SPLINE
  5
101
100
AcDbEntity
  8
Layer_1
 62
7
100
AcDbSpline
 70
0
 71
3
 72
10
 73
6
 74
4
 40
0.000000
 40
0.000000
 40
0.000000
 40
0.000000
 40
13.317162
 40
29.930885
 40
46.245427
 40
46.245427
 40
46.245427
 40
46.245427
 10
44.573437
 20
637.837623
 30
0.0
 10
44.602717
 20
633.398641
 30
0.0
 10
44.668525
 20
623.421841
 30
0.0
 10
44.948418
 20
608.008855
 30
0.0
 10
45.233670
 20
597.036472
 30
0.0
 10
45.374999
 20
591.600128
 30
0.0
 11
44.573437
 21
637.837623
 31
0.0
 11
44.684111
 21
624.520921
 31
0.0
 11
44.972111
 21
607.909694
 31
0.0
 11
45.374999
 21
591.600128
 31
0.0
  0
LWPOLYLINE
  5
102
100
AcDbEntity
  8
Layer_1
 62
7
100
AcDbPolyline
 90
3
 70
0
 10
41.365624
 20
662.718879
 30
0.0
 10
44.573437
 20
656.875127
 30
0.0
 10
44.573437
 20
637.837623
 30
0.0
  0
SPLINE
  5
103
100
AcDbEntity
  8
Layer_1
 62
7
100
AcDbSpline
 70
0
 71
3
 72
10
 73
6
 74
4
 40
0.000000
 40
0.000000
 40
0.000000
 40
0.000000
 40
111.008105
 40
190.156923
 40
240.104279
 40
240.104279
 40
240.104279
 40
240.104279
 10
45.374999
 20
591.600128
 30
0.0
 10
46.572834
 20
554.619148
 30
0.0
 10
48.624724
 20
491.270717
 30
0.0
 10
51.820924
 20
411.277105
 30
0.0
 10
55.589003
 20
368.405804
 30
0.0
 10
57.046874
 20
351.818883
 30
0.0
 11
45.374999
 21
591.600128
 31
0.0
 11
49.131885
 21
480.655614
 31
0.0
 11
52.980068
 21
401.600400
 31
0.0
 11
57.046874
 21
351.818883
 31
0.0
  0
LWPOLYLINE
  5
104
100
AcDbEntity
  8
Layer_1
 62
7
100
AcDbPolyline
 90
3
 70
0
 10
57.046874
 20
351.818883
 30
0.0
 10
58.332812
 20
340.837627
 30
0.0
 10
54.279687
 20
336.290755
 30
0.0
  0
SPLINE
  5
105
100
AcDbEntity
  8
Layer_1
 62
7
100
AcDbSpline
 70
0
 71
3
 72
19
 73
15
 74
13
 40
0.000000
 40
0.000000
 40
0.000000
 40
0.000000
 40
7.475847
 40
13.427507
 40
19.648631
 40
23.625108
 40
27.022852
 40
31.173569
 40
49.214503
 40
69.082716
 40
88.177947
 40
96.875667
 40
106.459447
 40
114.661318
 40
114.661318
 40
114.661318
 40
114.661318
 10
54.279687
 20
336.290755
 30
0.0
 10
52.650792
 20
334.394908
 30
0.0
 10
49.725103
 20
330.989741
 30
0.0
 10
46.978352
 20
324.896267
 30
0.0
 10
46.632746
 20
319.462213
 30
0.0
 10
46.749194
 20
314.924787
 30
0.0
 10
47.626067
 20
311.155003
 30
0.0
 10
51.098258
 20
303.339790
 30
0.0
 10
58.951306
 20
291.562402
 30
0.0
 10
72.343436
 20
278.002403
 30
0.0
 10
85.303573
 20
268.533514
 30
0.0
 10
96.723483
 20
263.496836
 30
0.0
 10
105.024257
 20
260.446671
 30
0.0
 10
110.799319
 20
259.085600
 30
0.0
 10
113.462495
 20
258.457940
 30
0.0
 11
54.279687
 21
336.290755
 31
0.0
 11
49.718047
 21
330.367940
 31
0.0
 11
47.360539
 21
324.903106
 31
0.0
 11
46.698437
 21
318.717315
 31
0.0
 11
46.898931
 21
314.745896
 31
0.0
 11
47.659936
 21
311.434471
 31
0.0
 11
49.253124
 21
307.601691
 31
0.0
 11
59.024137
 21
292.435854
 31
0.0
 11
72.899794
 21
278.215727
 31
0.0
 11
88.571871
 21
267.306380
 31
0.0
 11
96.485444
 21
263.697266
 31
0.0
 11
105.515594
 21
260.487091
 31
0.0
 11
113.462495
 21
258.457940
 31
0.0
  0
SPLINE
  5
106
100
AcDbEntity
  8
Layer_1
 62
7
100
AcDbSpline
 70
0
 71
3
 72
16
 73
12
 74
10
 40
0.000000
 40
0.000000
 40
0.000000
 40
0.000000
 40
3.089031
 40
6.996167
 40
10.886560
 40
15.523205
 40
19.236341
 40
23.924706
 40
33.878670
 40
45.963122
 40
66.184852
 40
66.184852
 40
66.184852
 40
66.184852
 10
113.464063
 20
258.457940
 30
0.0
 10
114.485647
 20
258.326669
 30
0.0
 10
116.799374
 20
258.029361
 30
0.0
 10
120.429827
 20
257.873932
 30
0.0
 10
124.571266
 20
257.880352
 30
0.0
 10
128.663853
 20
258.036492
 30
0.0
 10
132.909232
 20
259.114907
 30
0.0
 10
138.427551
 20
261.767900
 30
0.0
 10
146.198473
 20
266.429357
 30
0.0
 10
154.383195
 20
278.209222
 30
0.0
 10
159.420431
 20
287.686609
 30
0.0
 10
162.573438
 20
293.618884
 30
0.0
 11
113.464063
 21
258.457940
 31
0.0
 11
116.532590
 21
258.102615
 31
0.0
 11
120.434605
 21
257.902655
 31
0.0
 11
124.324998
 21
257.901692
 31
0.0
 11
128.950119
 21
258.228391
 31
0.0
 11
132.550699
 21
259.135697
 31
0.0
 11
136.829686
 21
261.051692
 31
0.0
 11
145.142570
 21
266.526850
 31
0.0
 11
152.636554
 21
276.007049
 31
0.0
 11
162.573438
 21
293.618884
 31
0.0
  0
SPLINE
  5
107
100
AcDbEntity
  8
Layer_1
 62
7
100
AcDbSpline
 70
0
 71
3
 72
16
 73
12
 74
10
 40
0.000000
 40
0.000000
 40
0.000000
 40
0.000000
 40
15.920870
 40
24.885041
 40
34.269313
 40
45.787797
 40
64.235986
 40
85.619781
 40
117.811671
 40
135.835496
 40
151.053846
 40
151.053846
 40
151.053846
 40
151.053846
 10
162.573438
 20
293.618884
 30
0.0
 10
165.020791
 20
298.324719
 30
0.0
 10
168.846115
 20
305.680152
 30
0.0
 10
174.932197
 20
315.406569
 30
0.0
 10
181.890110
 20
322.578059
 30
0.0
 10
190.875526
 20
332.115796
 30
0.0
 10
202.687242
 20
344.511661
 30
0.0
 10
219.222770
 20
361.918395
 30
0.0
 10
235.693630
 20
379.170866
 30
0.0
 10
250.295875
 20
395.430044
 30
0.0
 10
256.534543
 20
404.601442
 30
0.0
 10
259.390621
 20
408.800130
 30
0.0
 11
162.573438
 21
293.618884
 31
0.0
 11
170.158692
 21
307.616669
 31
0.0
 11
175.100071
 21
315.095916
 31
0.0
 11
181.373438
 21
322.075131
 31
0.0
 11
189.300636
 21
330.431865
 31
0.0
 11
202.008250
 21
343.805429
 31
0.0
 11
216.745309
 21
359.300131
 31
0.0
 11
238.810850
 21
382.740047
 31
0.0
 11
250.575154
 21
396.395062
 31
0.0
 11
259.390621
 21
408.800130
 31
0.0
  0
SPLINE
  5
108
100
AcDbEntity
  8
Layer_1
 62
7
100
AcDbSpline
 70
0
 71
3
 72
25
 73
21
 74
19
 40
0.000000
 40
0.000000
 40
0.000000
 40
0.000000
 40
19.183985
 40
36.710368
 40
52.160623
 40
67.094134
 40
82.574564
 40
97.398543
 40
105.297913
 40
112.993768
 40
121.484974
 40
129.791620
 40
141.200164
 40
163.492003
 40
177.206081
 40
187.113625
 40
191.070979
 40
192.647988
 40
196.700433
 40
202.366937
 40
202.366937
 40
202.366937
 40
202.366937
 10
259.390621
 20
408.800130
 30
0.0
 10
262.803020
 20
414.216953
 30
0.0
 10
269.332969
 20
424.582557
 30
0.0
 10
276.468661
 20
440.488564
 30
0.0
 10
281.189557
 20
455.835962
 30
0.0
 10
282.216170
 20
471.222350
 30
0.0
 10
280.265175
 20
486.249807
 30
0.0
 10
276.300527
 20
498.466775
 30
0.0
 10
271.224825
 20
507.310385
 30
0.0
 10
265.769970
 20
513.294564
 30
0.0
 10
259.137027
 20
518.101866
 30
0.0
 10
251.029301
 20
522.916036
 30
0.0
 10
237.621604
 20
527.374291
 30
0.0
 10
223.030148
 20
532.142886
 30
0.0
 10
207.139189
 20
536.217390
 30
0.0
 10
200.828662
 20
539.799751
 30
0.0
 10
192.584922
 20
540.262533
 30
0.0
 10
195.084099
 20
543.294083
 30
0.0
 10
197.236231
 20
545.943409
 30
0.0
 10
199.462776
 20
548.397451
 30
0.0
 10
200.760933
 20
549.828248
 30
0.0
 11
259.390621
 21
408.800130
 31
0.0
 11
269.216035
 21
425.276978
 31
0.0
 11
276.396238
 21
441.265061
 31
0.0
 11
280.642180
 21
456.120442
 31
0.0
 11
281.723568
 21
471.014748
 31
0.0
 11
279.757260
 21
486.369791
 31
0.0
 11
274.971869
 21
500.400129
 31
0.0
 11
270.952347
 21
507.200386
 31
0.0
 11
265.787889
 21
512.906045
 31
0.0
 11
259.015621
 21
518.028249
 31
0.0
 11
251.809853
 21
522.160715
 31
0.0
 11
241.139469
 21
526.197766
 31
0.0
 11
219.860933
 21
532.842313
 31
0.0
 11
206.755589
 21
536.882843
 31
0.0
 11
197.307576
 21
539.865206
 31
0.0
 11
193.562494
 21
541.143881
 31
0.0
 11
194.407782
 21
542.475213
 31
0.0
 11
196.993891
 21
545.595204
 31
0.0
 11
200.760933
 21
549.828248
 31
0.0
  0
SPLINE
  5
109
100
AcDbEntity
  8
Layer_1
 62
7
100
AcDbSpline
 70
0
 71
3
 72
10
 73
6
 74
4
 40
0.000000
 40
0.000000
 40
0.000000
 40
0.000000
 40
39.362636
 40
73.738796
 40
105.262203
 40
105.262203
 40
105.262203
 40
105.262203
 10
200.760933
 20
549.828248
 30
0.0
 10
209.304516
 20
559.791278
 30
0.0
 10
225.309376
 20
578.455217
 30
0.0
 10
243.533845
 20
608.869671
 30
0.0
 10
249.747821
 20
630.011717
 30
0.0
 10
252.720309
 20
640.125127
 30
0.0
 11
200.760933
 21
549.828248
 31
0.0
 11
225.468949
 21
580.470230
 31
0.0
 11
242.613994
 21
610.265663
 31
0.0
 11
252.720309
 21
640.125127
 31
0.0
  0
SPLINE
  5
10a
100
AcDbEntity
  8
Layer_1
 62
7
100
AcDbSpline
 70
0
 71
3
 72
10
 73
6
 74
4
 40
0.000000
 40
0.000000
 40
0.000000
 40
0.000000
 40
6.391111
 40
13.078267
 40
22.807231
 40
22.807231
 40
22.807231
 40
22.807231
 10
252.720309
 20
640.125127
 30
0.0
 10
253.161152
 20
642.211903
 30
0.0
 10
254.063259
 20
646.482116
 30
0.0
 10
254.568988
 20
654.086627
 30
0.0
 10
254.568838
 20
659.557708
 30
0.0
 10
254.568749
 20
662.800127
 30
0.0
 11
252.720309
 21
640.125127
 31
0.0
 11
253.896661
 21
646.407045
 31
0.0
 11
254.441111
 21
653.072001
 31
0.0
 11
254.568749
 21
662.800127
 31
0.0
  0
LWPOLYLINE
  5
10b
100
AcDbEntity
  8
Layer_1
 62
7
100
AcDbPolyline
 90
2
 70
0
 10
113.462495
 20
258.457940
 30
0.0
 10
113.464063
 20
258.457940
 30
0.0
  0
SPLINE
  5
10c
100
AcDbEntity
  8
Layer_1
 62
7
100
AcDbSpline
 70
0
 71
3
 72
19
 73
15
 74
13
 40
0.000000
 40
0.000000
 40
0.000000
 40
0.000000
 40
9.705685
 40
15.662786
 40
20.738978
 40
39.879797
 40
56.473651
 40
74.225372
 40
87.642295
 40
105.634087
 40
122.529972
 40
137.070432
 40
153.023368
 40
170.708454
 40
170.708454
 40
170.708454
 40
170.708454
 10
254.568749
 20
662.800127
 30
0.0
 10
254.569075
 20
666.033050
 30
0.0
 10
254.569600
 20
671.250259
 30
0.0
 10
254.148581
 20
678.179558
 30
0.0
 10
251.660583
 20
687.940684
 30
0.0
 10
246.618621
 20
700.838361
 30
0.0
 10
234.033209
 20
714.084921
 30
0.0
 10
219.050986
 20
720.701979
 30
0.0
 10
202.647180
 20
722.190342
 30
0.0
 10
186.544096
 20
722.122428
 30
0.0
 10
170.092981
 20
720.602399
 30
0.0
 10
154.656587
 20
717.162863
 30
0.0
 10
139.114793
 20
713.107740
 30
0.0
 10
128.435117
 20
709.683315
 30
0.0
 10
122.820310
 20
707.882934
 30
0.0
 11
254.568749
 21
662.800127
 31
0.0
 11
254.447429
 21
672.505054
 31
0.0
 11
253.930789
 21
678.439709
 31
0.0
 11
252.776557
 21
683.382935
 31
0.0
 11
245.158169
 21
700.942294
 31
0.0
 11
233.677262
 21
712.923311
 31
0.0
 11
217.489061
 21
720.207934
 31
0.0
 11
204.175515
 21
721.870257
 31
0.0
 11
186.183736
 21
721.848598
 31
0.0
 11
169.373438
 21
720.150126
 31
0.0
 11
155.138509
 21
717.185034
 31
0.0
 11
139.712146
 21
713.120123
 31
0.0
 11
122.820310
 21
707.882934
 31
0.0
  0
LWPOLYLINE
  5
10d
100
AcDbEntity
  8
Layer_1
 62
7
100
AcDbPolyline
 90
3
 70
0
 10
122.820310
 20
707.882934
 30
0.0
 10
107.865623
 20
702.946999
 30
0.0
 10
101.321871
 20
709.103254
 30
0.0
  0
SPLINE
  5
10e
100
AcDbEntity
  8
Layer_1
 62
7
100
AcDbSpline
 70
0
 71
3
 72
10
 73
6
 74
4
 40
0.000000
 40
0.000000
 40
0.000000
 40
0.000000
 40
14.780034
 40
29.306724
 40
44.358134
 40
44.358134
 40
44.358134
 40
44.358134
 10
101.321871
 20
709.103254
 30
0.0
 10
97.492415
 20
712.233687
 30
0.0
 10
89.899143
 20
718.440893
 30
0.0
 10
75.858129
 20
723.979945
 30
0.0
 10
65.993335
 20
724.732697
 30
0.0
 10
60.973437
 20
725.115750
 30
0.0
 11
101.321871
 21
709.103254
 31
0.0
 11
89.405343
 21
717.846582
 31
0.0
 11
75.903084
 21
723.205100
 31
0.0
 11
60.973437
 21
725.115750
 31
0.0
  0
LWPOLYLINE
  5
10f
100
AcDbEntity
  8
Layer_1
 62
7
100
AcDbPolyline
 90
1
 70
1
 10
60.973437
 20
725.115750
 30
0.0
  0
SPLINE
  5
110
100
AcDbEntity
  8
Layer_1
 62
7
100
AcDbSpline
 70
0
 71
3
 72
19
 73
15
 74
13
 40
0.000000
 40
0.000000
 40
0.000000
 40
0.000000
 40
4.757956
 40
8.721066
 40
12.511918
 40
31.800506
 40
64.877087
 40
104.834367
 40
111.906221
 40
117.060450
 40
119.187715
 40
122.764167
 40
137.694692
 40
170.452513
 40
170.452513
 40
170.452513
 40
170.452513
 10
163.089062
 20
653.321999
 30
0.0
 10
164.684585
 20
653.267472
 30
0.0
 10
167.609088
 20
653.167526
 30
0.0
 10
171.518513
 20
651.208020
 30
0.0
 10
176.291549
 20
643.042914
 30
0.0
 10
166.762094
 20
623.530449
 30
0.0
 10
151.355574
 20
598.610439
 30
0.0
 10
133.558849
 20
578.609543
 30
0.0
 10
120.774677
 20
565.890002
 30
0.0
 10
117.641627
 20
563.237927
 30
0.0
 10
114.286056
 20
559.637897
 30
0.0
 10
114.829377
 20
570.527097
 30
0.0
 10
113.145683
 20
583.093876
 30
0.0
 10
112.981518
 20
600.229451
 30
0.0
 10
112.868751
 20
612.000128
 30
0.0
 11
163.089062
 21
653.321999
 31
0.0
 11
167.816234
 21
652.781634
 31
0.0
 11
171.296949
 21
650.886676
 31
0.0
 11
173.340622
 21
647.693879
 31
0.0
 11
169.121889
 21
628.872298
 31
0.0
 11
151.675579
 21
600.770936
 31
0.0
 11
125.478126
 21
570.600128
 31
0.0
 11
120.414126
 21
565.663832
 31
0.0
 11
116.649759
 21
562.143091
 31
0.0
 11
114.999999
 21
560.800128
 31
0.0
 11
114.489515
 21
564.339961
 31
0.0
 11
113.868621
 21
579.257570
 31
0.0
 11
112.868751
 21
612.000128
 31
0.0
  0
LWPOLYLINE
  5
111
100
AcDbEntity
  8
Layer_1
 62
7
100
AcDbPolyline
 90
3
 70
0
 10
112.868751
 20
612.000128
 30
0.0
 10
112.365623
 20
629.200127
 30
0.0
 10
123.068750
 20
635.756375
 30
0.0
  0
SPLINE
  5
112
100
AcDbEntity
  8
Layer_1
 62
7
100
AcDbSpline
 70
0
 71
3
 72
13
 73
9
 74
7
 40
0.000000
 40
0.000000
 40
0.000000
 40
0.000000
 40
15.057880
 40
28.476258
 40
38.170319
 40
40.252900
 40
42.204493
 40
44.028900
 40
44.028900
 40
44.028900
 40
44.028900
 10
123.068750
 20
635.756375
 30
0.0
 10
127.397368
 20
638.304133
 30
0.0
 10
135.583302
 20
643.122247
 30
0.0
 10
147.016034
 20
648.687204
 30
0.0
 10
154.821585
 20
651.920049
 30
0.0
 10
159.292438
 20
652.913283
 30
0.0
 10
161.224113
 20
653.218214
 30
0.0
 10
162.481530
 20
653.288190
 30
0.0
 10
163.089062
 20
653.321999
 30
0.0
 11
123.068750
 21
635.756375
 31
0.0
 11
136.150578
 21
643.213288
 31
0.0
 11
148.211672
 21
649.094009
 31
0.0
 11
157.306246
 21
652.450127
 31
0.0
 11
159.339450
 21
652.900934
 31
0.0
 11
161.269362
 21
653.191027
 31
0.0
 11
163.089062
 21
653.321999
 31
0.0
  0
LWPOLYLINE
  5
113
100
AcDbEntity
  8
Layer_1
 62
7
100
AcDbPolyline
 90
1
 70
1
 10
163.089062
 20
653.321999
 30
0.0
  0
SPLINE
  5
114
100
AcDbEntity
  8
Layer_1
 62
7
100
AcDbSpline
 70
0
 71
3
 72
25
 73
21
 74
19
 40
0.000000
 40
0.000000
 40
0.000000
 40
0.000000
 40
9.030047
 40
15.657072
 40
21.740876
 40
25.693623
 40
29.645921
 40
34.953372
 40
42.918293
 40
52.197545
 40
62.864605
 40
82.310401
 40
108.780109
 40
134.152563
 40
142.807676
 40
149.229973
 40
152.035540
 40
154.567852
 40
171.148275
 40
215.230821
 40
215.230821
 40
215.230821
 40
215.230821
 10
182.776558
 20
476.268881
 30
0.0
 10
185.788761
 20
476.149546
 30
0.0
 10
191.011579
 20
475.942632
 30
0.0
 10
198.021499
 20
473.130360
 30
0.0
 10
201.345718
 20
468.409757
 30
0.0
 10
202.907431
 20
463.968028
 30
0.0
 10
202.904552
 20
459.495804
 30
0.0
 10
201.646804
 20
453.877958
 30
0.0
 10
199.134313
 20
446.763056
 30
0.0
 10
194.670023
 20
438.571589
 30
0.0
 10
187.353987
 20
427.633625
 30
0.0
 10
174.505137
 20
413.782731
 30
0.0
 10
157.606823
 20
396.878655
 30
0.0
 10
142.821376
 20
383.804175
 30
0.0
 10
132.074127
 20
374.633548
 30
0.0
 10
127.835479
 20
372.004135
 30
0.0
 10
123.968297
 20
367.880898
 30
0.0
 10
122.446116
 20
377.745433
 30
0.0
 10
123.243350
 20
395.170366
 30
0.0
 10
122.339572
 20
416.500185
 30
0.0
 10
121.682814
 20
432.000130
 30
0.0
 11
182.776558
 21
476.268881
 31
0.0
 11
191.755124
 21
475.306027
 31
0.0
 11
197.771876
 21
472.528230
 31
0.0
 11
201.446869
 21
467.679817
 31
0.0
 11
202.686396
 21
463.926448
 31
0.0
 11
202.782034
 21
459.975307
 31
0.0
 11
201.759373
 21
454.767314
 31
0.0
 11
199.102186
 21
447.258697
 31
0.0
 11
194.780721
 21
439.047152
 31
0.0
 11
188.828126
 21
430.195442
 31
0.0
 11
176.018098
 21
415.565263
 31
0.0
 11
157.247317
 21
396.902379
 31
0.0
 11
138.332814
 21
379.990755
 31
0.0
 11
131.623337
 21
374.523225
 31
0.0
 11
126.567847
 21
370.562426
 31
0.0
 11
124.260934
 21
368.965755
 31
0.0
 11
123.449262
 21
371.364461
 31
0.0
 11
122.771714
 21
387.931035
 31
0.0
 11
121.682814
 21
432.000130
 31
0.0
  0
LWPOLYLINE
  5
115
100
AcDbEntity
  8
Layer_1
 62
7
100
AcDbPolyline
 90
3
 70
0
 10
121.682814
 20
432.000130
 30
0.0
 10
121.198438
 20
452.400130
 30
0.0
 10
127.251558
 20
456.800130
 30
0.0
  0
SPLINE
  5
116
100
AcDbEntity
  8
Layer_1
 62
7
100
AcDbSpline
 70
0
 71
3
 72
13
 73
9
 74
7
 40
0.000000
 40
0.000000
 40
0.000000
 40
0.000000
 40
20.751165
 40
39.400237
 40
57.635088
 40
58.386327
 40
59.121011
 40
59.839840
 40
59.839840
 40
59.839840
 40
59.839840
 10
127.251558
 20
456.800130
 30
0.0
 10
133.013376
 20
460.662724
 30
0.0
 10
143.953338
 20
467.996631
 30
0.0
 10
162.179123
 20
474.676558
 30
0.0
 10
174.744559
 20
476.210787
 30
0.0
 10
181.317538
 20
476.275803
 30
0.0
 10
182.052481
 20
476.276526
 30
0.0
 10
182.536961
 20
476.271411
 30
0.0
 10
182.776558
 20
476.268881
 30
0.0
 11
127.251558
 21
456.800130
 31
0.0
 11
144.958491
 21
467.620267
 31
0.0
 11
162.476516
 21
474.016104
 31
0.0
 11
180.571870
 21
476.267313
 31
0.0
 11
181.323071
 21
476.274730
 31
0.0
 11
182.057756
 21
476.275102
 31
0.0
 11
182.776558
 21
476.268881
 31
0.0
  0
LWPOLYLINE
  5
117
100
AcDbEntity
  8
Layer_1
 62
7
100
AcDbPolyline
 90
1
 70
1
 10
182.776558
 20
476.268881
 30
0.0
  0
ENDSEC
  0
SECTION
  2
OBJECTS
  0
DICTIONARY
  5
C
330
0
100
AcDbDictionary
  3
ACAD_GROUP
350
D
  3
ACAD_MLINESTYLE
350
17
  0
DICTIONARY
  5
D
330
C
100
AcDbDictionary
  0
DICTIONARY
  5
1A
330
C
100
AcDbDictionary
  0
DICTIONARY
  5
17
330
C
100
AcDbDictionary
  3
STANDARD
350
18
  0
DICTIONARY
  5
19
330
C
100
AcDbDictionary
  0
ENDSEC
  0
EOF
