<?xml version="1.0" encoding="UTF-8" standalone="no"?>
<!-- Created with Inkscape (http://www.inkscape.org/) -->

<svg
   xmlns:dc="http://purl.org/dc/elements/1.1/"
   xmlns:cc="http://creativecommons.org/ns#"
   xmlns:rdf="http://www.w3.org/1999/02/22-rdf-syntax-ns#"
   xmlns:svg="http://www.w3.org/2000/svg"
   xmlns="http://www.w3.org/2000/svg"
   xmlns:sodipodi="http://sodipodi.sourceforge.net/DTD/sodipodi-0.dtd"
   xmlns:inkscape="http://www.inkscape.org/namespaces/inkscape"
   width="210mm"
   height="297mm"
   viewBox="0 0 210 297"
   version="1.1"
   id="svg8"
   sodipodi:docname="B.svg"
   inkscape:version="0.92.2 5c3e80d, 2017-08-06">
  <defs
     id="defs2" />
  <sodipodi:namedview
     id="base"
     pagecolor="#ffffff"
     bordercolor="#666666"
     borderopacity="1.0"
     inkscape:pageopacity="0.0"
     inkscape:pageshadow="2"
     inkscape:zoom="0.49497475"
     inkscape:cx="445.02278"
     inkscape:cy="608.42187"
     inkscape:document-units="mm"
     inkscape:current-layer="layer1"
     showgrid="false"
     inkscape:window-width="1680"
     inkscape:window-height="973"
     inkscape:window-x="0"
     inkscape:window-y="1"
     inkscape:window-maximized="1" />
  <metadata
     id="metadata5">
    <rdf:RDF>
      <cc:Work
         rdf:about="">
        <dc:format>image/svg+xml</dc:format>
        <dc:type
           rdf:resource="http://purl.org/dc/dcmitype/StillImage" />
        <dc:title></dc:title>
      </cc:Work>
    </rdf:RDF>
  </metadata>
  <g
     inkscape:label="Layer 1"
     inkscape:groupmode="layer"
     id="layer1">
    <path
       style="fill:#000000;stroke-width:1.00000012"
       d="M 76.216797 216.125 C 62.578496 215.98017 57.580492 217.5492 51.121094 223.99609 C 44.611292 230.49329 41.619019 237.94278 40.949219 249.32422 C 40.080721 264.08316 43.860033 279.82333 51.707031 294.12109 L 55.716797 301.42578 L 55.716797 325.22266 C 55.718294 338.31105 56.16935 364.31952 56.71875 383.01953 C 61.410848 542.72082 66.035393 637.72542 71.308594 682.74609 L 72.916016 696.47266 L 67.849609 702.15625 C 60.558009 710.33723 58.353015 715.44899 58.373047 724.12305 C 58.386544 729.99205 58.941608 732.40853 61.566406 738.01758 C 70.253008 756.5805 90.963743 777.80472 110.71484 788.38672 C 118.99235 792.82158 133.48812 797.97484 141.82812 799.44727 L 141.83008 799.44727 C 144.79268 799.97035 150.90265 800.28393 155.40625 800.14258 C 162.53755 799.91872 164.55481 799.40887 171.03711 796.20508 C 183.29911 790.14487 187.9098 784.31257 203.2168 755.49609 C 216.0074 731.41706 216.38599 730.84499 226.7168 719.92578 C 232.4918 713.82192 252.38815 692.88208 270.93164 673.39453 C 308.01534 634.42284 311.99847 629.80088 324.23828 611.51953 C 338.05287 590.8863 347.44965 569.96212 350.80273 552.36914 C 354.15453 534.78315 351.36325 512.98558 343.71484 497.01953 C 339.21316 487.62211 333.43261 481.23545 323.76953 474.98438 C 313.95123 468.63295 311.03091 467.52838 274.82617 456.4668 C 257.01099 451.02375 242.21781 446.35441 241.95312 446.08984 C 241.68843 445.82509 245.73757 440.93984 250.95117 435.23438 C 286.78148 396.0234 307.44827 360.10704 315.90039 322.36328 C 317.85539 313.63356 318.22228 309.21089 318.21094 294.01953 C 318.20542 278.3741 317.91293 275.00826 315.9707 268.29102 C 308.5098 242.48788 295.39063 228.79778 271.86133 222.25977 C 260.58484 219.12639 229.5497 219.16392 211.7168 222.33203 C 194.5536 225.3812 175.67029 230.35667 153.52539 237.66602 L 134.83203 243.83594 L 126.65234 236.14062 C 112.81374 223.12223 95.704997 216.33212 76.216797 216.125 z M 203.86133 305.86719 C 210.46992 305.67238 215.09875 308.12384 216.67578 312.90234 C 221.53478 327.62515 193.19876 373.26692 156.84766 409.26953 C 150.04496 416.00703 144.151 421.51953 143.75 421.51953 C 143.069 421.51953 142.68454 412.27464 141.08594 357.51953 L 140.45703 336.01953 L 153.83594 327.82422 C 170.01544 317.91313 187.92941 309.17913 196.63281 306.95703 C 199.23599 306.29241 201.65847 305.93212 203.86133 305.86719 z M 228.4707 527.18359 C 241.8034 527.35935 248.42009 530.45874 251.80859 537.91992 C 254.08359 542.92931 254.16582 546.32374 252.19922 554.06055 C 249.93172 562.98084 244.48155 573.3368 236.03516 584.77539 C 226.17186 598.13269 194.22521 629.89624 172.91602 647.53125 C 163.95151 654.95012 156.03587 661.15149 155.32617 661.3125 C 154.00047 661.61293 153.94902 660.35108 152.10352 582.51953 L 151.49805 557.01953 L 159.06445 551.51953 C 181.63545 535.11264 202.41555 527.5257 225.71484 527.18555 C 226.66443 527.17169 227.58186 527.17188 228.4707 527.18359 z "
       transform="scale(0.26458333)"
       id="path33" />
  </g>
</svg>
