  0
SECTION
  2
HEADER
  9
$ACADVER
  1
AC1014
  9
$HANDSEED
  5
FFFF
  9
$MEASUREMENT
 70
     1
  0
ENDSEC
  0
SECTION
  2
TABLES
  0
TABLE
  2
VPORT
  5
8
330
0
100
AcDbSymbolTable
 70
     4
  0
VPORT
  5
2E
330
8
100
AcDbSymbolTableRecord
100
AcDbViewportTableRecord
  2
*ACTIVE
 70
     0
 10
0.0
 20
0.0
 11
1.0
 21
1.0
 12
210.0
 22
148.5
 13
0.0
 23
0.0
 14
10.0
 24
10.0
 15
10.0
 25
10.0
 16
0.0
 26
0.0
 36
1.0
 17
0.0
 27
0.0
 37
0.0
 40
341.0
 41
1.24
 42
50.0
 43
0.0
 44
0.0
 50
0.0
 51
0.0
 71
     0
 72
   100
 73
     1
 74
     3
 75
     0
 76
     0
 77
     0
 78
     0
  0
ENDTAB
  0
TABLE
  2
LTYPE
  5
5
330
0
100
AcDbSymbolTable
 70
     1
  0
LTYPE
  5
14
330
5
100
AcDbSymbolTableRecord
100
AcDbLinetypeTableRecord
  2
BYBLOCK
 70
     0
  3

 72
    65
 73
     0
 40
0.0
  0
LTYPE
  5
15
330
5
100
AcDbSymbolTableRecord
100
AcDbLinetypeTableRecord
  2
BYLAYER
 70
     0
  3

 72
    65
 73
     0
 40
0.0
  0
LTYPE
  5
16
330
5
100
AcDbSymbolTableRecord
100
AcDbLinetypeTableRecord
  2
CONTINUOUS
 70
     0
  3
Solid line
 72
    65
 73
     0
 40
0.0
  0
ENDTAB
  0
TABLE
  2
LAYER
  5
2
100
AcDbSymbolTable
 70
2
  0
LAYER
  5
50
100
AcDbSymbolTableRecord
100
AcDbLayerTableRecord
  2
0
 70
0
  6
CONTINUOUS
  0
LAYER
  5
51
100
AcDbSymbolTableRecord
100
AcDbLayerTableRecord
  2
Layer_1
 70
0
  6
CONTINUOUS
  0
ENDTAB
  0
TABLE
  2
STYLE
  5
3
330
0
100
AcDbSymbolTable
 70
     1
  0
STYLE
  5
11
330
3
100
AcDbSymbolTableRecord
100
AcDbTextStyleTableRecord
  2
STANDARD
 70
     0
 40
0.0
 41
1.0
 50
0.0
 71
     0
 42
2.5
  3
txt
  4

  0
ENDTAB
  0
TABLE
  2
VIEW
  5
6
330
0
100
AcDbSymbolTable
 70
     0
  0
ENDTAB
  0
TABLE
  2
UCS
  5
7
330
0
100
AcDbSymbolTable
 70
     0
  0
ENDTAB
  0
TABLE
  2
APPID
  5
9
330
0
100
AcDbSymbolTable
 70
     2
  0
APPID
  5
12
330
9
100
AcDbSymbolTableRecord
100
AcDbRegAppTableRecord
  2
ACAD
 70
     0
  0
ENDTAB
  0
TABLE
  2
DIMSTYLE
  5
A
330
0
100
AcDbSymbolTable
 70
     1
  0
DIMSTYLE
105
27
330
A
100
AcDbSymbolTableRecord
100
AcDbDimStyleTableRecord
  2
ISO-25
 70
     0
  3

  4

  5

  6

  7

 40
1.0
 41
2.5
 42
0.625
 43
3.75
 44
1.25
 45
0.0
 46
0.0
 47
0.0
 48
0.0
140
2.5
141
2.5
142
0.0
143
0.03937007874016
144
1.0
145
0.0
146
1.0
147
0.625
 71
     0
 72
     0
 73
     0
 74
     0
 75
     0
 76
     0
 77
     1
 78
     8
170
     0
171
     3
172
     1
173
     0
174
     0
175
     0
176
     0
177
     0
178
     0
270
     2
271
     2
272
     2
273
     2
274
     3
340
11
275
     0
280
     0
281
     0
282
     0
283
     0
284
     8
285
     0
286
     0
287
     3
288
     0
  0
ENDTAB
  0
TABLE
  2
BLOCK_RECORD
  5
1
330
0
100
AcDbSymbolTable
 70
     1
  0
BLOCK_RECORD
  5
1F
330
1
100
AcDbSymbolTableRecord
100
AcDbBlockTableRecord
  2
*MODEL_SPACE
  0
BLOCK_RECORD
  5
1B
330
1
100
AcDbSymbolTableRecord
100
AcDbBlockTableRecord
  2
*PAPER_SPACE
  0
ENDTAB
  0
ENDSEC
  0
SECTION
  2
BLOCKS
  0
BLOCK
  5
20
330
1F
100
AcDbEntity
  8
0
100
AcDbBlockBegin
  2
*MODEL_SPACE
 70
     0
 10
0.0
 20
0.0
 30
0.0
  3
*MODEL_SPACE
  1

  0
ENDBLK
  5
21
330
1F
100
AcDbEntity
  8
0
100
AcDbBlockEnd
  0
BLOCK
  5
1C
330
1B
100
AcDbEntity
 67
     1
  8
0
100
AcDbBlockBegin
  2
*PAPER_SPACE
  1

  0
ENDBLK
  5
1D
330
1B
100
AcDbEntity
 67
     1
  8
0
100
AcDbBlockEnd
  0
ENDSEC
  0
SECTION
  2
ENTITIES
  0
SPLINE
  5
100
100
AcDbEntity
  8
Layer_1
 62
7
100
AcDbSpline
 70
0
 71
3
 72
16
 73
12
 74
10
 40
0.000000
 40
0.000000
 40
0.000000
 40
0.000000
 40
12.816223
 40
25.438090
 40
36.702524
 40
51.528507
 40
67.616878
 40
83.029938
 40
96.086631
 40
112.167466
 40
126.215156
 40
126.215156
 40
126.215156
 40
126.215156
 10
825.224073
 20
267.215108
 30
0.0
 10
820.996465
 20
267.862237
 30
0.0
 10
812.605361
 20
269.146681
 30
0.0
 10
800.865202
 20
272.717696
 30
0.0
 10
788.992734
 20
277.906154
 30
0.0
 10
777.528103
 20
286.213507
 30
0.0
 10
766.263141
 20
296.795591
 30
0.0
 10
756.763098
 20
308.328655
 30
0.0
 10
749.645067
 20
321.401246
 30
0.0
 10
743.221688
 20
334.289112
 30
0.0
 10
739.522406
 20
343.631260
 30
0.0
 10
737.797584
 20
347.987119
 30
0.0
 11
825.224073
 21
267.215108
 31
0.0
 11
812.605759
 21
269.458706
 31
0.0
 11
800.518958
 21
273.094743
 31
0.0
 11
790.254614
 21
277.734864
 31
0.0
 11
778.074947
 21
286.188588
 31
0.0
 11
766.345054
 21
297.199733
 31
0.0
 11
756.706560
 21
309.227278
 31
0.0
 11
750.192804
 21
320.543118
 31
0.0
 11
743.142065
 21
334.995810
 31
0.0
 11
737.797584
 21
347.987119
 31
0.0
  0
SPLINE
  5
101
100
AcDbEntity
  8
Layer_1
 62
7
100
AcDbSpline
 70
0
 71
3
 72
10
 73
6
 74
4
 40
0.000000
 40
0.000000
 40
0.000000
 40
0.000000
 40
36.942196
 40
78.512244
 40
125.424051
 40
125.424051
 40
125.424051
 40
125.424051
 10
737.797584
 20
347.987119
 30
0.0
 10
734.299190
 20
359.809975
 30
0.0
 10
726.864150
 20
384.936769
 30
0.0
 10
721.583756
 20
426.589524
 30
0.0
 10
720.924579
 20
456.077273
 30
0.0
 10
720.575093
 20
471.711254
 30
0.0
 11
737.797584
 21
347.987119
 31
0.0
 11
728.216693
 21
383.665297
 31
0.0
 11
722.485377
 21
424.838357
 31
0.0
 11
720.575093
 21
471.711254
 31
0.0
  0
SPLINE
  5
102
100
AcDbEntity
  8
Layer_1
 62
7
100
AcDbSpline
 70
0
 71
3
 72
10
 73
6
 74
4
 40
0.000000
 40
0.000000
 40
0.000000
 40
0.000000
 40
58.078471
 40
113.186820
 40
165.832988
 40
165.832988
 40
165.832988
 40
165.832988
 10
720.575093
 20
471.711254
 30
0.0
 10
721.075130
 20
491.071191
 30
0.0
 10
722.049633
 20
528.801000
 30
0.0
 10
729.732005
 20
583.742442
 30
0.0
 10
739.469207
 20
618.345353
 30
0.0
 10
744.226560
 20
635.251472
 30
0.0
 11
720.575093
 21
471.711254
 31
0.0
 11
723.199197
 21
529.730413
 31
0.0
 11
731.087246
 21
584.271305
 31
0.0
 11
744.226560
 21
635.251472
 31
0.0
  0
SPLINE
  5
103
100
AcDbEntity
  8
Layer_1
 62
7
100
AcDbSpline
 70
0
 71
3
 72
16
 73
12
 74
10
 40
0.000000
 40
0.000000
 40
0.000000
 40
0.000000
 40
53.518841
 40
93.836260
 40
126.356194
 40
137.641623
 40
151.813670
 40
164.108516
 40
192.154399
 40
221.133035
 40
255.198137
 40
255.198137
 40
255.198137
 40
255.198137
 10
744.226560
 20
635.251472
 30
0.0
 10
750.248350
 20
652.098762
 30
0.0
 10
760.806543
 20
681.637643
 30
0.0
 10
785.333958
 20
716.743526
 30
0.0
 10
810.981456
 20
731.620637
 30
0.0
 10
830.377069
 20
732.950400
 30
0.0
 10
842.953101
 20
732.788483
 30
0.0
 10
861.089570
 20
731.064740
 30
0.0
 10
883.107572
 20
722.080904
 30
0.0
 10
905.334119
 20
700.278307
 30
0.0
 10
914.120669
 20
681.033479
 30
0.0
 10
918.868399
 20
670.634714
 30
0.0
 11
744.226560
 21
635.251472
 31
0.0
 11
764.782576
 21
684.665200
 31
0.0
 11
789.319547
 21
716.656314
 31
0.0
 11
818.171414
 21
731.660175
 31
0.0
 11
829.404293
 21
732.747990
 31
0.0
 11
843.575260
 21
732.573020
 31
0.0
 11
855.792711
 21
731.195656
 31
0.0
 11
881.795765
 21
720.687910
 31
0.0
 11
902.699212
 21
700.617851
 31
0.0
 11
918.868399
 21
670.634714
 31
0.0
  0
SPLINE
  5
104
100
AcDbEntity
  8
Layer_1
 62
7
100
AcDbSpline
 70
0
 71
3
 72
34
 73
30
 74
28
 40
0.000000
 40
0.000000
 40
0.000000
 40
0.000000
 40
19.930743
 40
43.238089
 40
68.064762
 40
75.982898
 40
84.972082
 40
93.094141
 40
106.485618
 40
114.740527
 40
120.597620
 40
130.066125
 40
139.918084
 40
151.548172
 40
156.513250
 40
160.605564
 40
167.234716
 40
173.832339
 40
178.847735
 40
185.326768
 40
204.343201
 40
220.271864
 40
232.461504
 40
237.609987
 40
243.718668
 40
252.677789
 40
261.415496
 40
268.273552
 40
278.333432
 40
278.333432
 40
278.333432
 40
278.333432
 10
918.868399
 20
670.634714
 30
0.0
 10
921.133818
 20
664.387441
 30
0.0
 10
926.048455
 20
650.834503
 30
0.0
 10
932.112971
 20
628.946086
 30
0.0
 10
936.122736
 20
610.697897
 30
0.0
 10
939.184160
 20
597.126158
 30
0.0
 10
941.332717
 20
589.062965
 30
0.0
 10
944.271291
 20
579.323449
 30
0.0
 10
947.318065
 20
569.906108
 30
0.0
 10
949.421855
 20
560.896574
 30
0.0
 10
948.842233
 20
552.963534
 30
0.0
 10
945.512494
 20
545.037591
 30
0.0
 10
938.347732
 20
537.334970
 30
0.0
 10
930.580271
 20
533.061837
 30
0.0
 10
924.374124
 20
529.960129
 30
0.0
 10
919.157852
 20
529.094999
 30
0.0
 10
913.383768
 20
529.313798
 30
0.0
 10
907.291874
 20
529.246547
 30
0.0
 10
901.315129
 20
530.259148
 30
0.0
 10
891.669676
 20
533.519152
 30
0.0
 10
878.831001
 20
538.804528
 30
0.0
 10
865.730063
 20
547.551305
 30
0.0
 10
858.152192
 20
556.195285
 30
0.0
 10
856.204074
 20
563.959657
 30
0.0
 10
857.388085
 20
570.721491
 30
0.0
 10
860.072176
 20
578.158763
 30
0.0
 10
863.242943
 20
585.779021
 30
0.0
 10
863.927889
 20
594.415573
 30
0.0
 10
863.044879
 20
599.998657
 30
0.0
 10
862.519816
 20
603.318516
 30
0.0
 11
918.868399
 21
670.634714
 31
0.0
 11
925.438970
 21
651.818175
 31
0.0
 11
931.779389
 21
629.389812
 31
0.0
 11
937.366556
 21
605.199995
 31
0.0
 11
939.151893
 21
597.485759
 31
0.0
 11
941.456722
 21
588.797076
 31
0.0
 11
943.782077
 21
581.015010
 31
0.0
 11
947.629570
 21
568.188145
 31
0.0
 11
949.117214
 21
560.068389
 31
0.0
 11
948.689991
 21
554.226898
 31
0.0
 11
945.102702
 21
545.464253
 31
0.0
 11
938.478285
 21
538.171915
 31
0.0
 11
928.571444
 21
532.079834
 31
0.0
 11
924.023743
 21
530.087243
 31
0.0
 11
920.000083
 21
529.340788
 31
0.0
 11
913.371424
 21
529.259974
 31
0.0
 11
906.776966
 21
529.464320
 31
0.0
 11
901.829764
 21
530.288569
 31
0.0
 11
895.643354
 21
532.213720
 31
0.0
 11
878.205001
 21
539.798479
 31
0.0
 11
865.143388
 21
548.915308
 31
0.0
 11
857.788392
 21
558.635974
 31
0.0
 11
856.617401
 21
563.649521
 31
0.0
 11
857.355331
 21
569.713468
 31
0.0
 11
860.171429
 21
578.218492
 31
0.0
 11
862.984215
 21
586.491083
 31
0.0
 11
863.623084
 21
593.319316
 31
0.0
 11
862.519816
 21
603.318516
 31
0.0
  0
SPLINE
  5
105
100
AcDbEntity
  8
Layer_1
 62
7
100
AcDbSpline
 70
0
 71
3
 72
13
 73
9
 74
7
 40
0.000000
 40
0.000000
 40
0.000000
 40
0.000000
 40
24.398633
 40
44.793021
 40
58.561441
 40
67.695163
 40
81.120199
 40
104.478000
 40
104.478000
 40
104.478000
 40
104.478000
 10
862.519816
 20
603.318516
 30
0.0
 10
861.086591
 20
611.397956
 30
0.0
 10
858.455359
 20
626.230857
 30
0.0
 10
851.156568
 20
643.882968
 30
0.0
 10
843.653686
 20
657.661666
 30
0.0
 10
829.412449
 20
658.781787
 30
0.0
 10
821.666584
 20
643.077742
 30
0.0
 10
818.315461
 20
631.733992
 30
0.0
 10
816.187434
 20
624.530495
 30
0.0
 11
862.519816
 21
603.318516
 31
0.0
 11
857.344436
 21
627.161937
 31
0.0
 11
849.738359
 21
646.084904
 31
0.0
 11
841.039975
 21
656.757649
 31
0.0
 11
831.920670
 21
657.270637
 31
0.0
 11
823.722361
 21
646.639582
 31
0.0
 11
816.187434
 21
624.530495
 31
0.0
  0
SPLINE
  5
106
100
AcDbEntity
  8
Layer_1
 62
7
100
AcDbSpline
 70
0
 71
3
 72
19
 73
15
 74
13
 40
0.000000
 40
0.000000
 40
0.000000
 40
0.000000
 40
58.101794
 40
125.582192
 40
186.643331
 40
234.168642
 40
269.540150
 40
291.698569
 40
296.931571
 40
300.795714
 40
304.367974
 40
319.836666
 40
345.990183
 40
380.277062
 40
380.277062
 40
380.277062
 40
380.277062
 10
816.187434
 20
624.530495
 30
0.0
 10
812.296424
 20
605.545192
 30
0.0
 10
803.886330
 20
564.510040
 30
0.0
 10
798.432731
 20
502.412120
 30
0.0
 10
796.851603
 20
443.724648
 30
0.0
 10
801.157843
 20
395.686126
 30
0.0
 10
807.702258
 20
361.565077
 30
0.0
 10
816.212184
 20
341.410460
 30
0.0
 10
824.290807
 20
334.711423
 30
0.0
 10
828.265215
 20
332.926779
 30
0.0
 10
836.156494
 20
333.915612
 30
0.0
 10
846.287941
 20
347.002381
 30
0.0
 10
858.328854
 20
368.471696
 30
0.0
 10
865.285210
 20
387.567342
 30
0.0
 10
869.231441
 20
398.400000
 30
0.0
 11
816.187434
 21
624.530495
 31
0.0
 11
805.529161
 21
567.414650
 31
0.0
 11
798.962137
 21
500.254555
 31
0.0
 11
798.065507
 21
439.200000
 31
0.0
 11
802.403696
 21
391.873102
 31
0.0
 11
810.119331
 21
357.353360
 31
0.0
 11
820.709745
 21
337.889582
 31
0.0
 11
824.810874
 21
334.639190
 31
0.0
 11
828.418662
 21
333.255185
 31
0.0
 11
831.977272
 21
333.567163
 31
0.0
 11
843.515829
 21
343.869695
 31
0.0
 11
856.546105
 21
366.546078
 31
0.0
 11
869.231441
 21
398.400000
 31
0.0
  0
SPLINE
  5
107
100
AcDbEntity
  8
Layer_1
 62
7
100
AcDbSpline
 70
0
 71
3
 72
22
 73
18
 74
16
 40
0.000000
 40
0.000000
 40
0.000000
 40
0.000000
 40
8.025854
 40
12.837478
 40
16.724864
 40
30.762723
 40
46.271692
 40
66.860593
 40
91.321608
 40
108.852608
 40
127.001118
 40
134.708881
 40
142.440290
 40
150.700119
 40
155.941750
 40
161.010173
 40
167.961145
 40
167.961145
 40
167.961145
 40
167.961145
 10
873.769202
 20
423.599985
 30
0.0
 10
873.789701
 20
426.272267
 30
0.0
 10
873.822489
 20
430.546624
 30
0.0
 10
874.267467
 20
436.138452
 30
0.0
 10
876.602082
 20
443.374509
 30
0.0
 10
883.440111
 20
452.966831
 30
0.0
 10
899.745355
 20
459.046204
 30
0.0
 10
919.965463
 20
459.394767
 30
0.0
 10
941.031797
 20
457.069621
 30
0.0
 10
958.437300
 20
443.850506
 30
0.0
 10
959.315582
 20
427.976765
 30
0.0
 10
956.533277
 20
417.179990
 30
0.0
 10
952.976353
 20
410.022204
 30
0.0
 10
948.484696
 20
404.528367
 30
0.0
 10
944.316810
 20
399.929434
 30
0.0
 10
941.454795
 20
394.896099
 30
0.0
 10
939.920200
 20
391.195295
 30
0.0
 10
939.032723
 20
389.055073
 30
0.0
 11
873.769202
 21
423.599985
 31
0.0
 11
873.951382
 21
431.623771
 31
0.0
 11
874.494522
 21
436.404641
 31
0.0
 11
875.645692
 21
440.117669
 31
0.0
 11
883.944242
 21
451.440017
 31
0.0
 11
898.151017
 21
457.660601
 31
0.0
 11
918.698321
 21
458.968713
 31
0.0
 11
942.691902
 21
454.209581
 31
0.0
 11
955.940000
 21
442.728125
 31
0.0
 11
958.213856
 21
424.722626
 31
0.0
 11
956.276458
 21
417.262324
 31
0.0
 11
952.825945
 21
410.343607
 31
0.0
 11
947.781029
 21
403.803454
 31
0.0
 11
944.434189
 21
399.769430
 31
0.0
 11
941.848434
 21
395.410211
 31
0.0
 11
939.032723
 21
389.055073
 31
0.0
  0
LWPOLYLINE
  5
108
100
AcDbEntity
  8
Layer_1
 62
7
100
AcDbPolyline
 90
3
 70
0
 10
869.231441
 20
398.400000
 30
0.0
 10
873.671841
 20
411.600015
 30
0.0
 10
873.769202
 20
423.599985
 30
0.0
  0
SPLINE
  5
109
100
AcDbEntity
  8
Layer_1
 62
7
100
AcDbSpline
 70
0
 71
3
 72
16
 73
12
 74
10
 40
0.000000
 40
0.000000
 40
0.000000
 40
0.000000
 40
53.541421
 40
97.653745
 40
131.314381
 40
139.577804
 40
148.414834
 40
155.623026
 40
162.411288
 40
170.520331
 40
178.238368
 40
178.238368
 40
178.238368
 40
178.238368
 10
939.032723
 20
389.055073
 30
0.0
 10
931.842900
 20
372.683780
 30
0.0
 10
918.729442
 20
342.824316
 30
0.0
 10
895.585190
 20
305.670893
 30
0.0
 10
876.616621
 20
283.480563
 30
0.0
 10
862.334174
 20
274.301001
 30
0.0
 10
855.092814
 20
270.672118
 30
0.0
 10
847.959446
 20
267.858874
 30
0.0
 10
840.593786
 20
267.027453
 30
0.0
 10
833.061111
 20
266.654001
 30
0.0
 10
827.793098
 20
267.031178
 30
0.0
 10
825.224164
 20
267.215108
 30
0.0
 11
939.032723
 21
389.055073
 31
0.0
 11
916.231333
 21
340.611494
 31
0.0
 11
892.636658
 21
303.339675
 31
0.0
 11
869.371525
 21
279.013312
 31
0.0
 11
862.429576
 21
274.530734
 31
0.0
 11
854.536945
 21
270.555876
 31
0.0
 11
847.751055
 21
268.124886
 31
0.0
 11
841.034269
 21
267.142391
 31
0.0
 11
832.931831
 21
266.815162
 31
0.0
 11
825.224164
 21
267.215108
 31
0.0
  0
LWPOLYLINE
  5
10a
100
AcDbEntity
  8
Layer_1
 62
7
100
AcDbPolyline
 90
1
 70
1
 10
825.224164
 20
267.215108
 30
0.0
  0
ENDSEC
  0
SECTION
  2
OBJECTS
  0
DICTIONARY
  5
C
330
0
100
AcDbDictionary
  3
ACAD_GROUP
350
D
  3
ACAD_MLINESTYLE
350
17
  0
DICTIONARY
  5
D
330
C
100
AcDbDictionary
  0
DICTIONARY
  5
1A
330
C
100
AcDbDictionary
  0
DICTIONARY
  5
17
330
C
100
AcDbDictionary
  3
STANDARD
350
18
  0
DICTIONARY
  5
19
330
C
100
AcDbDictionary
  0
ENDSEC
  0
EOF
