  0
SECTION
  2
HEADER
  9
$ACADVER
  1
AC1014
  9
$HANDSEED
  5
FFFF
  9
$MEASUREMENT
 70
     1
  0
ENDSEC
  0
SECTION
  2
TABLES
  0
TABLE
  2
VPORT
  5
8
330
0
100
AcDbSymbolTable
 70
     4
  0
VPORT
  5
2E
330
8
100
AcDbSymbolTableRecord
100
AcDbViewportTableRecord
  2
*ACTIVE
 70
     0
 10
0.0
 20
0.0
 11
1.0
 21
1.0
 12
210.0
 22
148.5
 13
0.0
 23
0.0
 14
10.0
 24
10.0
 15
10.0
 25
10.0
 16
0.0
 26
0.0
 36
1.0
 17
0.0
 27
0.0
 37
0.0
 40
341.0
 41
1.24
 42
50.0
 43
0.0
 44
0.0
 50
0.0
 51
0.0
 71
     0
 72
   100
 73
     1
 74
     3
 75
     0
 76
     0
 77
     0
 78
     0
  0
ENDTAB
  0
TABLE
  2
LTYPE
  5
5
330
0
100
AcDbSymbolTable
 70
     1
  0
LTYPE
  5
14
330
5
100
AcDbSymbolTableRecord
100
AcDbLinetypeTableRecord
  2
BYBLOCK
 70
     0
  3

 72
    65
 73
     0
 40
0.0
  0
LTYPE
  5
15
330
5
100
AcDbSymbolTableRecord
100
AcDbLinetypeTableRecord
  2
BYLAYER
 70
     0
  3

 72
    65
 73
     0
 40
0.0
  0
LTYPE
  5
16
330
5
100
AcDbSymbolTableRecord
100
AcDbLinetypeTableRecord
  2
CONTINUOUS
 70
     0
  3
Solid line
 72
    65
 73
     0
 40
0.0
  0
ENDTAB
  0
TABLE
  2
LAYER
  5
2
100
AcDbSymbolTable
 70
2
  0
LAYER
  5
50
100
AcDbSymbolTableRecord
100
AcDbLayerTableRecord
  2
0
 70
0
  6
CONTINUOUS
  0
LAYER
  5
51
100
AcDbSymbolTableRecord
100
AcDbLayerTableRecord
  2
Layer_1
 70
0
  6
CONTINUOUS
  0
ENDTAB
  0
TABLE
  2
STYLE
  5
3
330
0
100
AcDbSymbolTable
 70
     1
  0
STYLE
  5
11
330
3
100
AcDbSymbolTableRecord
100
AcDbTextStyleTableRecord
  2
STANDARD
 70
     0
 40
0.0
 41
1.0
 50
0.0
 71
     0
 42
2.5
  3
txt
  4

  0
ENDTAB
  0
TABLE
  2
VIEW
  5
6
330
0
100
AcDbSymbolTable
 70
     0
  0
ENDTAB
  0
TABLE
  2
UCS
  5
7
330
0
100
AcDbSymbolTable
 70
     0
  0
ENDTAB
  0
TABLE
  2
APPID
  5
9
330
0
100
AcDbSymbolTable
 70
     2
  0
APPID
  5
12
330
9
100
AcDbSymbolTableRecord
100
AcDbRegAppTableRecord
  2
ACAD
 70
     0
  0
ENDTAB
  0
TABLE
  2
DIMSTYLE
  5
A
330
0
100
AcDbSymbolTable
 70
     1
  0
DIMSTYLE
105
27
330
A
100
AcDbSymbolTableRecord
100
AcDbDimStyleTableRecord
  2
ISO-25
 70
     0
  3

  4

  5

  6

  7

 40
1.0
 41
2.5
 42
0.625
 43
3.75
 44
1.25
 45
0.0
 46
0.0
 47
0.0
 48
0.0
140
2.5
141
2.5
142
0.0
143
0.03937007874016
144
1.0
145
0.0
146
1.0
147
0.625
 71
     0
 72
     0
 73
     0
 74
     0
 75
     0
 76
     0
 77
     1
 78
     8
170
     0
171
     3
172
     1
173
     0
174
     0
175
     0
176
     0
177
     0
178
     0
270
     2
271
     2
272
     2
273
     2
274
     3
340
11
275
     0
280
     0
281
     0
282
     0
283
     0
284
     8
285
     0
286
     0
287
     3
288
     0
  0
ENDTAB
  0
TABLE
  2
BLOCK_RECORD
  5
1
330
0
100
AcDbSymbolTable
 70
     1
  0
BLOCK_RECORD
  5
1F
330
1
100
AcDbSymbolTableRecord
100
AcDbBlockTableRecord
  2
*MODEL_SPACE
  0
BLOCK_RECORD
  5
1B
330
1
100
AcDbSymbolTableRecord
100
AcDbBlockTableRecord
  2
*PAPER_SPACE
  0
ENDTAB
  0
ENDSEC
  0
SECTION
  2
BLOCKS
  0
BLOCK
  5
20
330
1F
100
AcDbEntity
  8
0
100
AcDbBlockBegin
  2
*MODEL_SPACE
 70
     0
 10
0.0
 20
0.0
 30
0.0
  3
*MODEL_SPACE
  1

  0
ENDBLK
  5
21
330
1F
100
AcDbEntity
  8
0
100
AcDbBlockEnd
  0
BLOCK
  5
1C
330
1B
100
AcDbEntity
 67
     1
  8
0
100
AcDbBlockBegin
  2
*PAPER_SPACE
  1

  0
ENDBLK
  5
1D
330
1B
100
AcDbEntity
 67
     1
  8
0
100
AcDbBlockEnd
  0
ENDSEC
  0
SECTION
  2
ENTITIES
  0
SPLINE
  5
100
100
AcDbEntity
  8
Layer_1
 62
7
100
AcDbSpline
 70
0
 71
3
 72
22
 73
18
 74
16
 40
0.000000
 40
0.000000
 40
0.000000
 40
0.000000
 40
31.654212
 40
69.847191
 40
120.905069
 40
173.933278
 40
221.774661
 40
264.574305
 40
312.541668
 40
369.198425
 40
422.490097
 40
450.929870
 40
478.666716
 40
514.036540
 40
551.034351
 40
577.270450
 40
608.020261
 40
608.020261
 40
608.020261
 40
608.020261
 10
234.559418
 20
224.927667
 30
0.0
 10
224.581775
 20
228.522284
 30
0.0
 10
202.565419
 20
236.454052
 30
0.0
 10
170.168629
 20
261.179719
 30
0.0
 10
135.350662
 20
293.246517
 30
0.0
 10
101.848649
 20
331.592686
 30
0.0
 10
78.117627
 20
373.576979
 30
0.0
 10
65.306537
 20
418.708333
 30
0.0
 10
68.573612
 20
468.335976
 30
0.0
 10
78.767586
 20
519.983195
 30
0.0
 10
94.076439
 20
563.783191
 30
0.0
 10
111.606031
 20
595.936291
 30
0.0
 10
130.749879
 20
619.890673
 30
0.0
 10
155.181321
 20
642.656218
 30
0.0
 10
179.218868
 20
665.134681
 30
0.0
 10
205.950390
 20
682.029990
 30
0.0
 10
224.137700
 20
687.766220
 30
0.0
 10
233.951640
 20
690.861512
 30
0.0
 11
234.559418
 21
224.927667
 31
0.0
 11
205.304384
 21
237.016177
 31
0.0
 11
173.995578
 21
258.889960
 31
0.0
 11
136.439010
 21
293.479136
 31
0.0
 11
102.247487
 21
334.012217
 31
0.0
 11
79.121911
 21
375.893068
 31
0.0
 11
68.096716
 21
417.248292
 31
0.0
 11
69.313323
 21
465.200225
 31
0.0
 11
80.329825
 21
520.775622
 31
0.0
 11
98.546041
 21
570.857272
 31
0.0
 11
112.423831
 21
595.681205
 31
0.0
 11
129.579691
 21
617.475909
 31
0.0
 11
154.779152
 21
642.295490
 31
0.0
 11
182.722263
 21
666.544625
 31
0.0
 11
205.086040
 21
680.263022
 31
0.0
 11
233.951640
 21
690.861512
 31
0.0
  0
SPLINE
  5
101
100
AcDbEntity
  8
Layer_1
 62
7
100
AcDbSpline
 70
0
 71
3
 72
10
 73
6
 74
4
 40
0.000000
 40
0.000000
 40
0.000000
 40
0.000000
 40
40.119487
 40
72.799590
 40
114.216974
 40
114.216974
 40
114.216974
 40
114.216974
 10
233.951640
 20
690.861512
 30
0.0
 10
246.803385
 20
694.887238
 30
0.0
 10
270.123767
 20
702.192197
 30
0.0
 10
309.029256
 20
699.798715
 30
0.0
 10
331.842588
 20
689.962633
 30
0.0
 10
344.594283
 20
684.464676
 30
0.0
 11
233.951640
 21
690.861512
 31
0.0
 11
272.955506
 21
700.256813
 31
0.0
 11
305.581127
 21
698.370554
 31
0.0
 11
344.594283
 21
684.464676
 31
0.0
  0
SPLINE
  5
102
100
AcDbEntity
  8
Layer_1
 62
7
100
AcDbSpline
 70
0
 71
3
 72
16
 73
12
 74
10
 40
0.000000
 40
0.000000
 40
0.000000
 40
0.000000
 40
97.404649
 40
182.297112
 40
268.792554
 40
296.713772
 40
318.293162
 40
343.620659
 40
387.869648
 40
431.593709
 40
484.948925
 40
484.948925
 40
484.948925
 40
484.948925
 10
344.594283
 20
684.464676
 30
0.0
 10
373.852158
 20
669.906095
 30
0.0
 10
428.609567
 20
642.659067
 30
0.0
 10
490.178387
 20
573.920693
 30
0.0
 10
512.075084
 20
509.922584
 30
0.0
 10
520.628747
 20
465.382422
 30
0.0
 10
521.498906
 20
440.309887
 30
0.0
 10
516.827570
 20
410.224422
 30
0.0
 10
507.866417
 20
373.241527
 30
0.0
 10
483.703238
 20
332.031990
 30
0.0
 10
461.228191
 20
308.661616
 30
0.0
 10
448.875802
 20
295.817152
 30
0.0
 11
344.594283
 21
684.464676
 31
0.0
 11
428.656184
 21
635.258351
 31
0.0
 11
484.799196
 21
571.581884
 31
0.0
 11
515.439179
 21
490.695216
 31
0.0
 11
520.220201
 21
463.186378
 31
0.0
 11
520.831132
 21
441.615638
 31
0.0
 11
517.540475
 21
416.502818
 31
0.0
 11
505.779968
 21
373.845304
 31
0.0
 11
484.157670
 21
335.841756
 31
0.0
 11
448.875802
 21
295.817152
 31
0.0
  0
SPLINE
  5
103
100
AcDbEntity
  8
Layer_1
 62
7
100
AcDbSpline
 70
0
 71
3
 72
13
 73
9
 74
7
 40
0.000000
 40
0.000000
 40
0.000000
 40
0.000000
 40
35.540592
 40
63.505923
 40
95.309893
 40
146.642182
 40
193.789151
 40
235.153681
 40
235.153681
 40
235.153681
 40
235.153681
 10
448.875802
 20
295.817152
 30
0.0
 10
440.455020
 20
287.459884
 30
0.0
 10
425.408294
 20
272.526649
 30
0.0
 10
399.232290
 20
254.208016
 30
0.0
 10
365.460360
 20
238.706814
 30
0.0
 10
324.243434
 20
224.918589
 30
0.0
 10
277.483770
 20
217.785863
 30
0.0
 10
248.230499
 20
222.653057
 30
0.0
 10
234.559418
 20
224.927667
 30
0.0
 11
448.875802
 21
295.817152
 31
0.0
 11
422.863468
 21
271.599553
 31
0.0
 11
399.902733
 21
255.635078
 31
0.0
 11
371.245697
 21
241.841356
 31
0.0
 11
322.437546
 21
225.942668
 31
0.0
 11
275.647436
 21
220.152823
 31
0.0
 11
234.559418
 21
224.927667
 31
0.0
  0
SPLINE
  5
104
100
AcDbEntity
  8
Layer_1
 62
7
100
AcDbSpline
 70
0
 71
3
 72
25
 73
21
 74
19
 40
0.000000
 40
0.000000
 40
0.000000
 40
0.000000
 40
15.107590
 40
26.810826
 40
32.658807
 40
34.234201
 40
35.556296
 40
38.144189
 40
42.496727
 40
48.169313
 40
53.962265
 40
59.819549
 40
62.344501
 40
69.626951
 40
78.162522
 40
89.050352
 40
99.965759
 40
115.253782
 40
137.118743
 40
164.708055
 40
164.708055
 40
164.708055
 40
164.708055
 10
116.837654
 20
338.795883
 30
0.0
 10
113.876195
 20
342.874025
 30
0.0
 10
108.620613
 20
350.111338
 30
0.0
 10
103.583600
 20
359.831226
 30
0.0
 10
99.567619
 20
364.793463
 30
0.0
 10
100.179070
 20
368.499045
 30
0.0
 10
102.409357
 20
367.862251
 30
0.0
 10
103.848513
 20
365.551818
 30
0.0
 10
106.738729
 20
362.479196
 30
0.0
 10
110.552618
 20
358.645210
 30
0.0
 10
114.872053
 20
355.655176
 30
0.0
 10
118.981380
 20
350.583200
 30
0.0
 10
123.423621
 20
354.962316
 30
0.0
 10
120.964531
 20
361.533117
 30
0.0
 10
120.167953
 20
370.101017
 30
0.0
 10
117.574899
 20
380.025008
 30
0.0
 10
113.740038
 20
391.741837
 30
0.0
 10
110.811639
 20
407.581726
 30
0.0
 10
110.151428
 20
429.198412
 30
0.0
 10
110.788400
 20
445.670179
 30
0.0
 10
111.143751
 20
454.859369
 30
0.0
 11
116.837654
 21
338.795883
 31
0.0
 11
108.309060
 21
351.265941
 31
0.0
 11
102.245578
 21
361.275933
 31
0.0
 11
99.959917
 21
366.658741
 31
0.0
 11
100.485158
 21
368.143998
 31
0.0
 11
101.790803
 21
367.936087
 31
0.0
 11
103.594190
 21
366.080020
 31
0.0
 11
106.458854
 21
362.803088
 31
0.0
 11
110.546722
 21
358.870205
 31
0.0
 11
114.972805
 21
355.132815
 31
0.0
 11
119.921572
 21
351.999530
 31
0.0
 11
121.802981
 21
353.683479
 31
0.0
 11
121.481998
 21
360.958851
 31
0.0
 11
120.029406
 21
369.369912
 31
0.0
 11
117.479824
 21
379.955019
 31
0.0
 11
114.385225
 21
390.422566
 31
0.0
 11
111.531412
 21
405.441868
 31
0.0
 11
110.432894
 21
427.279216
 31
0.0
 11
111.143751
 21
454.859369
 31
0.0
  0
LWPOLYLINE
  5
105
100
AcDbEntity
  8
Layer_1
 62
7
100
AcDbPolyline
 90
1
 70
1
 10
234.559418
 20
224.927667
 30
0.0
  0
SPLINE
  5
106
100
AcDbEntity
  8
Layer_1
 62
7
100
AcDbSpline
 70
0
 71
3
 72
37
 73
33
 74
31
 40
0.000000
 40
0.000000
 40
0.000000
 40
0.000000
 40
28.421241
 40
46.117259
 40
56.353244
 40
63.114262
 40
67.061000
 40
78.418686
 40
91.490154
 40
109.092702
 40
127.502854
 40
144.093659
 40
156.910888
 40
163.307746
 40
171.807114
 40
180.579990
 40
184.959010
 40
186.825056
 40
189.420878
 40
193.983965
 40
199.037025
 40
202.630225
 40
205.537427
 40
208.089282
 40
210.062261
 40
212.552064
 40
221.482105
 40
238.333710
 40
264.151560
 40
285.601380
 40
287.881654
 40
311.430550
 40
311.430550
 40
311.430550
 40
311.430550
 10
111.143751
 20
454.859369
 30
0.0
 10
111.552807
 20
464.207016
 30
0.0
 10
112.216556
 20
479.374821
 30
0.0
 10
111.931381
 20
499.081839
 30
0.0
 10
108.364298
 20
508.828833
 30
0.0
 10
103.663539
 20
517.155528
 30
0.0
 10
96.773620
 20
511.478275
 30
0.0
 10
95.510543
 20
502.061102
 30
0.0
 10
91.716325
 20
488.549147
 30
0.0
 10
89.835768
 20
472.243766
 30
0.0
 10
88.632649
 20
454.756562
 30
0.0
 10
87.694257
 20
438.858377
 30
0.0
 10
86.628041
 20
426.928030
 30
0.0
 10
83.878984
 20
418.023649
 30
0.0
 10
80.269294
 20
411.141065
 30
0.0
 10
79.484423
 20
403.115599
 30
0.0
 10
83.845072
 20
399.185403
 30
0.0
 10
87.338991
 20
400.306571
 30
0.0
 10
87.571834
 20
396.195342
 30
0.0
 10
86.701301
 20
392.701341
 30
0.0
 10
85.870332
 20
388.291298
 30
0.0
 10
86.723341
 20
384.096302
 30
0.0
 10
89.769531
 20
382.878682
 30
0.0
 10
92.395320
 20
382.882977
 30
0.0
 10
93.815322
 20
380.481146
 30
0.0
 10
91.382405
 20
376.305435
 30
0.0
 10
92.845682
 20
366.503081
 30
0.0
 10
102.198024
 20
350.549644
 30
0.0
 10
112.893486
 20
340.591528
 30
0.0
 10
127.866066
 20
309.911645
 30
0.0
 10
131.758249
 20
326.877778
 30
0.0
 10
123.953436
 20
333.112019
 30
0.0
 10
116.837654
 20
338.795883
 30
0.0
 11
111.143751
 21
454.859369
 31
0.0
 11
112.030189
 21
483.266783
 31
0.0
 11
110.797653
 21
500.919825
 31
0.0
 11
107.257247
 21
510.524039
 31
0.0
 11
102.657055
 21
515.478794
 31
0.0
 11
99.360185
 21
513.309142
 31
0.0
 11
95.345204
 21
502.684785
 31
0.0
 11
92.414766
 21
489.946033
 31
0.0
 11
89.999566
 21
472.509964
 31
0.0
 11
88.622483
 21
454.151388
 31
0.0
 11
87.525160
 21
437.596910
 31
0.0
 11
85.843331
 21
424.890503
 31
0.0
 11
83.941100
 21
418.783022
 31
0.0
 11
80.797233
 21
410.886482
 31
0.0
 11
81.236445
 21
402.124607
 31
0.0
 11
84.896655
 21
399.720718
 31
0.0
 11
86.762297
 21
399.759541
 31
0.0
 11
87.429698
 21
397.250983
 31
0.0
 11
86.754369
 21
392.738147
 31
0.0
 11
86.182303
 21
387.717574
 31
0.0
 11
87.295725
 21
384.301233
 31
0.0
 11
89.915112
 21
383.040030
 31
0.0
 11
92.382711
 21
382.389707
 31
0.0
 11
93.375676
 21
380.684812
 31
0.0
 11
92.679035
 21
378.294455
 31
0.0
 11
92.836206
 21
369.365797
 31
0.0
 11
100.476782
 21
354.345870
 31
0.0
 11
115.531177
 21
333.371444
 31
0.0
 11
129.396000
 21
317.004970
 31
0.0
 11
129.929934
 21
319.221852
 31
0.0
 11
116.837654
 21
338.795883
 31
0.0
  0
LWPOLYLINE
  5
107
100
AcDbEntity
  8
Layer_1
 62
7
100
AcDbPolyline
 90
1
 70
1
 10
116.837654
 20
338.795883
 30
0.0
  0
SPLINE
  5
108
100
AcDbEntity
  8
Layer_1
 62
7
100
AcDbSpline
 70
0
 71
3
 72
13
 73
9
 74
7
 40
0.000000
 40
0.000000
 40
0.000000
 40
0.000000
 40
12.200256
 40
19.696502
 40
31.054080
 40
37.828179
 40
49.172458
 40
69.333806
 40
69.333806
 40
69.333806
 40
69.333806
 10
274.331417
 20
366.080020
 30
0.0
 10
274.602373
 20
370.286054
 30
0.0
 10
275.039814
 20
377.076417
 30
0.0
 10
266.685860
 20
385.739776
 30
0.0
 10
258.011080
 20
381.804022
 30
0.0
 10
246.792366
 20
386.813364
 30
0.0
 10
256.816836
 20
400.993571
 30
0.0
 10
263.303273
 20
407.933861
 30
0.0
 10
267.454128
 20
412.375151
 30
0.0
 11
274.331417
 21
366.080020
 31
0.0
 11
272.943523
 21
378.201076
 31
0.0
 11
267.517535
 21
383.373344
 31
0.0
 11
256.159993
 21
383.401746
 31
0.0
 11
250.159010
 21
386.544457
 31
0.0
 11
254.279159
 21
397.114085
 31
0.0
 11
267.454128
 21
412.375151
 31
0.0
  0
LWPOLYLINE
  5
109
100
AcDbEntity
  8
Layer_1
 62
7
100
AcDbPolyline
 90
3
 70
0
 10
267.454128
 20
412.375151
 30
0.0
 10
284.805395
 20
429.074313
 30
0.0
 10
301.583504
 20
409.691444
 30
0.0
  0
SPLINE
  5
10a
100
AcDbEntity
  8
Layer_1
 62
7
100
AcDbSpline
 70
0
 71
3
 72
13
 73
9
 74
7
 40
0.000000
 40
0.000000
 40
0.000000
 40
0.000000
 40
16.407736
 40
34.788071
 40
51.170193
 40
69.178368
 40
81.123627
 40
97.745887
 40
97.745887
 40
97.745887
 40
97.745887
 10
301.583504
 20
409.691444
 30
0.0
 10
305.114211
 20
405.515427
 30
0.0
 10
312.600101
 20
396.661336
 30
0.0
 10
323.181836
 20
383.258603
 30
0.0
 10
334.017545
 20
369.483766
 30
0.0
 10
342.505560
 20
356.237242
 30
0.0
 10
356.739912
 20
348.494350
 30
0.0
 10
366.429281
 20
348.889872
 30
0.0
 10
372.067124
 20
349.120010
 30
0.0
 11
301.583504
 21
409.691444
 31
0.0
 11
312.110693
 21
397.106053
 31
0.0
 11
323.580878
 21
382.743894
 31
0.0
 11
333.510803
 21
369.714293
 31
0.0
 11
344.941723
 21
355.799249
 31
0.0
 11
355.478147
 21
350.171376
 31
0.0
 11
372.067124
 21
349.120010
 31
0.0
  0
LWPOLYLINE
  5
10b
100
AcDbEntity
  8
Layer_1
 62
7
100
AcDbPolyline
 90
3
 70
0
 10
372.067124
 20
349.120010
 30
0.0
 10
395.474253
 20
349.120010
 30
0.0
 10
395.474253
 20
366.080020
 30
0.0
  0
SPLINE
  5
10c
100
AcDbEntity
  8
Layer_1
 62
7
100
AcDbSpline
 70
0
 71
3
 72
16
 73
12
 74
10
 40
0.000000
 40
0.000000
 40
0.000000
 40
0.000000
 40
11.212049
 40
17.281247
 40
26.126008
 40
35.444223
 40
46.051872
 40
60.317485
 40
75.159546
 40
91.850950
 40
106.778110
 40
106.778110
 40
106.778110
 40
106.778110
 10
395.474253
 20
366.080020
 30
0.0
 10
395.798629
 20
369.887374
 30
0.0
 10
396.298595
 20
375.755689
 30
0.0
 10
390.727898
 20
383.773537
 30
0.0
 10
381.798214
 20
382.526392
 30
0.0
 10
372.370804
 20
384.314717
 30
0.0
 10
362.824601
 20
391.140702
 30
0.0
 10
354.350246
 20
401.306022
 30
0.0
 10
344.997624
 20
413.376331
 30
0.0
 10
335.378450
 20
425.512690
 30
0.0
 10
328.843325
 20
433.781651
 30
0.0
 10
325.758085
 20
437.685437
 30
0.0
 11
395.474253
 21
366.080020
 31
0.0
 11
394.685858
 21
377.264316
 31
0.0
 11
390.936195
 21
382.036652
 31
0.0
 11
382.148546
 21
383.040151
 31
0.0
 11
373.004560
 21
384.833661
 31
0.0
 11
364.143660
 21
390.665184
 31
0.0
 11
354.537343
 21
401.211575
 31
0.0
 11
345.355512
 21
412.872654
 31
0.0
 11
335.016293
 21
425.976223
 31
0.0
 11
325.758085
 21
437.685437
 31
0.0
  0
LWPOLYLINE
  5
10d
100
AcDbEntity
  8
Layer_1
 62
7
100
AcDbPolyline
 90
3
 70
0
 10
325.758085
 20
437.685437
 30
0.0
 10
311.264353
 20
455.987996
 30
0.0
 10
337.455209
 20
482.508306
 30
0.0
  0
SPLINE
  5
10e
100
AcDbEntity
  8
Layer_1
 62
7
100
AcDbSpline
 70
0
 71
3
 72
13
 73
9
 74
7
 40
0.000000
 40
0.000000
 40
0.000000
 40
0.000000
 40
23.957658
 40
38.981175
 40
51.095306
 40
62.072062
 40
68.776474
 40
82.122640
 40
82.122640
 40
82.122640
 40
82.122640
 10
337.455209
 20
482.508306
 30
0.0
 10
343.057122
 20
488.160330
 30
0.0
 10
352.171917
 20
497.356660
 30
0.0
 10
366.405372
 20
507.481266
 30
0.0
 10
378.929002
 20
509.797431
 30
0.0
 10
389.925984
 20
507.679541
 30
0.0
 10
396.820858
 20
516.980168
 30
0.0
 10
396.012389
 20
523.843229
 30
0.0
 10
395.474253
 20
528.411454
 30
0.0
 11
337.455209
 21
482.508306
 31
0.0
 11
354.919729
 21
498.908303
 31
0.0
 11
367.631795
 21
506.915142
 31
0.0
 11
379.560144
 21
509.028586
 31
0.0
 11
390.502020
 21
509.902946
 31
0.0
 11
394.756371
 21
515.084610
 31
0.0
 11
395.474253
 21
528.411454
 31
0.0
  0
LWPOLYLINE
  5
10f
100
AcDbEntity
  8
Layer_1
 62
7
100
AcDbPolyline
 90
3
 70
0
 10
395.474253
 20
528.411454
 30
0.0
 10
395.474253
 20
547.794293
 30
0.0
 10
374.644974
 20
547.794293
 30
0.0
  0
SPLINE
  5
110
100
AcDbEntity
  8
Layer_1
 62
7
100
AcDbSpline
 70
0
 71
3
 72
10
 73
6
 74
4
 40
0.000000
 40
0.000000
 40
0.000000
 40
0.000000
 40
16.833044
 40
40.772235
 40
91.894684
 40
91.894684
 40
91.894684
 40
91.894684
 10
374.644974
 20
547.794293
 30
0.0
 10
368.893858
 20
547.517483
 30
0.0
 10
354.963765
 20
546.847006
 30
0.0
 10
331.344608
 20
524.961461
 30
0.0
 10
313.864505
 20
507.584326
 30
0.0
 10
301.959280
 20
495.749231
 30
0.0
 11
374.644974
 21
547.794293
 31
0.0
 11
357.979786
 21
545.423032
 31
0.0
 11
338.515726
 21
531.486202
 31
0.0
 11
301.959280
 21
495.749231
 31
0.0
  0
LWPOLYLINE
  5
111
100
AcDbEntity
  8
Layer_1
 62
7
100
AcDbPolyline
 90
7
 70
0
 10
301.959280
 20
495.749231
 30
0.0
 10
250.102862
 20
443.704199
 30
0.0
 10
250.102862
 20
519.977817
 30
0.0
 10
250.102862
 20
596.251431
 30
0.0
 10
221.028556
 20
596.251431
 30
0.0
 10
191.954283
 20
596.251431
 30
0.0
 10
191.954283
 20
576.868596
 30
0.0
  0
SPLINE
  5
112
100
AcDbEntity
  8
Layer_1
 62
7
100
AcDbSpline
 70
0
 71
3
 72
10
 73
6
 74
4
 40
0.000000
 40
0.000000
 40
0.000000
 40
0.000000
 40
12.798482
 40
19.232361
 40
27.301001
 40
27.301001
 40
27.301001
 40
27.301001
 10
191.954283
 20
576.868596
 30
0.0
 10
191.645309
 20
572.618142
 30
0.0
 10
191.181012
 20
566.230957
 30
0.0
 10
195.794321
 20
557.077675
 30
0.0
 10
201.110731
 20
557.339859
 30
0.0
 10
204.068576
 20
557.485727
 30
0.0
 11
191.954283
 21
576.868596
 31
0.0
 11
192.672164
 21
564.090263
 31
0.0
 11
196.082109
 21
558.634343
 31
0.0
 11
204.068576
 21
557.485727
 31
0.0
  0
LWPOLYLINE
  5
113
100
AcDbEntity
  8
Layer_1
 62
7
100
AcDbPolyline
 90
5
 70
0
 10
204.068576
 20
557.485727
 30
0.0
 10
216.182838
 20
557.485727
 30
0.0
 10
216.182838
 20
470.262879
 30
0.0
 10
216.182838
 20
383.040030
 30
0.0
 10
204.068576
 20
383.040030
 30
0.0
  0
SPLINE
  5
114
100
AcDbEntity
  8
Layer_1
 62
7
100
AcDbSpline
 70
0
 71
3
 72
10
 73
6
 74
4
 40
0.000000
 40
0.000000
 40
0.000000
 40
0.000000
 40
7.934158
 40
13.911133
 40
24.940460
 40
24.940460
 40
24.940460
 40
24.940460
 10
204.068576
 20
383.040030
 30
0.0
 10
201.198720
 20
383.179445
 30
0.0
 10
196.166940
 20
383.423883
 30
0.0
 10
191.286506
 20
375.523212
 30
0.0
 10
191.691577
 20
369.795009
 30
0.0
 10
191.954283
 20
366.080020
 30
0.0
 11
204.068576
 21
383.040030
 31
0.0
 11
196.210311
 21
381.945256
 31
0.0
 11
192.736264
 21
377.081591
 31
0.0
 11
191.954283
 21
366.080020
 31
0.0
  0
LWPOLYLINE
  5
115
100
AcDbEntity
  8
Layer_1
 62
7
100
AcDbPolyline
 90
5
 70
0
 10
191.954283
 20
366.080020
 30
0.0
 10
191.954283
 20
349.120010
 30
0.0
 10
233.142852
 20
349.120010
 30
0.0
 10
274.331417
 20
349.120010
 30
0.0
 10
274.331417
 20
366.080020
 30
0.0
  0
SPLINE
  5
116
100
AcDbEntity
  8
Layer_1
 62
7
100
AcDbSpline
 70
0
 71
3
 72
16
 73
12
 74
10
 40
0.000000
 40
0.000000
 40
0.000000
 40
0.000000
 40
1.857484
 40
4.204040
 40
9.486621
 40
14.769210
 40
17.115780
 40
18.973258
 40
22.956439
 40
27.308613
 40
31.291793
 40
31.291793
 40
31.291793
 40
31.291793
 10
83.712091
 20
476.320010
 30
0.0
 10
83.267517
 20
477.021622
 30
0.0
 10
82.261315
 20
478.609580
 30
0.0
 10
81.176823
 20
473.940350
 30
0.0
 10
81.318790
 20
470.257936
 30
0.0
 10
81.212358
 20
466.599669
 30
0.0
 10
82.209840
 20
461.896920
 30
0.0
 10
84.444068
 20
465.091521
 30
0.0
 10
84.604772
 20
468.096060
 30
0.0
 10
84.859161
 20
472.371034
 30
0.0
 10
84.082994
 20
475.043114
 30
0.0
 10
83.712091
 20
476.320010
 30
0.0
 11
83.712091
 21
476.320010
 31
0.0
 11
82.480977
 21
477.710911
 31
0.0
 11
81.602908
 21
475.534831
 31
0.0
 11
81.267976
 21
470.262879
 31
0.0
 11
81.602908
 21
464.990918
 31
0.0
 11
82.480977
 21
462.814824
 31
0.0
 11
83.712091
 21
464.205717
 31
0.0
 11
84.608252
 21
468.086777
 31
0.0
 11
84.608252
 21
472.438950
 31
0.0
 11
83.712091
 21
476.320010
 31
0.0
  0
LWPOLYLINE
  5
117
100
AcDbEntity
  8
Layer_1
 62
7
100
AcDbPolyline
 90
1
 70
1
 10
83.712091
 20
476.320010
 30
0.0
  0
ENDSEC
  0
SECTION
  2
OBJECTS
  0
DICTIONARY
  5
C
330
0
100
AcDbDictionary
  3
ACAD_GROUP
350
D
  3
ACAD_MLINESTYLE
350
17
  0
DICTIONARY
  5
D
330
C
100
AcDbDictionary
  0
DICTIONARY
  5
1A
330
C
100
AcDbDictionary
  0
DICTIONARY
  5
17
330
C
100
AcDbDictionary
  3
STANDARD
350
18
  0
DICTIONARY
  5
19
330
C
100
AcDbDictionary
  0
ENDSEC
  0
EOF
