<?xml version="1.0" encoding="UTF-8" standalone="no"?>
<!-- Created with Inkscape (http://www.inkscape.org/) -->

<svg
   xmlns:dc="http://purl.org/dc/elements/1.1/"
   xmlns:cc="http://creativecommons.org/ns#"
   xmlns:rdf="http://www.w3.org/1999/02/22-rdf-syntax-ns#"
   xmlns:svg="http://www.w3.org/2000/svg"
   xmlns="http://www.w3.org/2000/svg"
   xmlns:sodipodi="http://sodipodi.sourceforge.net/DTD/sodipodi-0.dtd"
   xmlns:inkscape="http://www.inkscape.org/namespaces/inkscape"
   width="210mm"
   height="297mm"
   viewBox="0 0 210 297"
   version="1.1"
   id="svg192"
   inkscape:version="0.92.2 5c3e80d, 2017-08-06"
   sodipodi:docname="knowitlogo.svg">
  <defs
     id="defs186" />
  <sodipodi:namedview
     id="base"
     pagecolor="#ffffff"
     bordercolor="#666666"
     borderopacity="1.0"
     inkscape:pageopacity="0.0"
     inkscape:pageshadow="2"
     inkscape:zoom="0.35"
     inkscape:cx="8.5714286"
     inkscape:cy="560"
     inkscape:document-units="mm"
     inkscape:current-layer="layer1"
     showgrid="false"
     inkscape:window-width="1680"
     inkscape:window-height="973"
     inkscape:window-x="0"
     inkscape:window-y="1"
     inkscape:window-maximized="1" />
  <metadata
     id="metadata189">
    <rdf:RDF>
      <cc:Work
         rdf:about="">
        <dc:format>image/svg+xml</dc:format>
        <dc:type
           rdf:resource="http://purl.org/dc/dcmitype/StillImage" />
        <dc:title></dc:title>
      </cc:Work>
    </rdf:RDF>
  </metadata>
  <g
     inkscape:label="Layer 1"
     inkscape:groupmode="layer"
     id="layer1">
    <path
       style="fill:#000000;stroke-width:1.60261905"
       d="M 77.575641,222.60986 C 67.77741,219.90695 59.04093,213.80324 45.12436,199.93789 32.10035,186.96182 24.05291,172.38775 22.52157,159.00382 c -1.50484,-13.15237 3.14192,-36.59406 10.07048,-50.80297 4.57308,-9.378349 8.40824,-14.250512 18.59793,-23.626702 11.49609,-10.5783 14.23092,-12.2559 26.184651,-16.0622 15.36179,-4.891505 21.22635,-4.552444 36.592749,2.11562 32.68485,14.18319 50.32082,34.185602 56.50339,64.085212 2.30041,11.12505 2.39886,14.60119 0.69496,24.53759 -2.67743,15.61356 -8.36318,25.60688 -22.70941,39.91427 -10.07206,10.04478 -14.29046,12.97781 -25.67454,17.85137 -16.06985,6.87955 -32.966199,8.97031 -45.206139,5.59385 z M 38.64162,184.95032 c -3.08358,-4.29211 -5.59546,-8.43889 -5.58196,-9.21506 0.0135,-0.77617 0.55438,-0.69004 1.20196,0.1914 0.64759,0.88144 2.34104,2.51069 3.76324,3.62056 2.23929,1.74752 2.52778,1.48931 2.15278,-1.92684 -0.23816,-2.16964 -1.29436,-6.55466 -2.34711,-9.74451 -1.22814,-3.72132 -1.61232,-11.35845 -1.07205,-21.31113 0.62275,-11.47182 0.288,-16.26626 -1.28538,-18.40993 -1.95979,-2.67015 -2.27019,-2.46588 -3.93966,2.59267 -0.99674,3.02016 -1.99727,10.24329 -2.2234,16.05141 -0.22612,5.80812 -0.92284,11.07192 -1.54827,11.69735 -1.6722,1.6722 -1.38723,7.35713 0.31603,6.30446 0.79924,-0.49396 1.07572,0.54525 0.6144,2.30934 -0.48771,1.865 -0.0502,3.20745 1.04535,3.20745 1.03626,0 1.44761,0.70628 0.91411,1.5695 -1.19318,1.93061 1.36063,6.95091 7.55787,14.85735 6.7574,8.62108 7.04794,7.41476 0.43209,-1.79402 z m 52.087781,-9.02366 c 0,-5.35685 -1.06394,-6.37104 -6.00982,-5.7288 -3.77593,0.49033 -2.00184,-4.06084 3.7353,-9.58235 l 5.73857,-5.5229 5.54901,6.41048 c 3.051949,3.52576 7.803639,9.47548 10.559289,13.22161 4.69432,6.38159 5.4985,6.81113 12.7517,6.81113 h 7.74142 v -5.60917 c 0,-5.05067 -0.43882,-5.60917 -4.4072,-5.60921 -3.18438,-4e-5 -5.71809,-1.66753 -9.13183,-6.00982 -2.59854,-3.30538 -6.88171,-8.73371 -9.51814,-12.06297 l -4.7935,-6.05319 8.66208,-8.77104 c 6.99944,-7.08747 9.67235,-8.77103 13.92533,-8.77103 5.07206,0 5.26326,-0.23288 5.26326,-6.41048 v -6.41047 h -6.88885 c -6.62459,0 -7.54676,0.6603 -24.039279,17.21282 l -17.15043,17.21281 V 125.02817 99.802261 H 73.10059 63.48488 v 6.410469 c 0,5.76943 0.40065,6.41048 4.00655,6.41048 h 4.00654 v 28.84714 28.84714 h -4.00654 c -3.5105,0 -4.00655,0.69447 -4.00655,5.60917 v 5.60917 h 13.622261 13.62226 z M 27.68603,139.46708 c -0.44459,-1.1018 -0.80834,-0.20033 -0.80834,2.00327 0,2.2036 0.36375,3.10508 0.80834,2.00328 0.44458,-1.1018 0.44458,-2.90475 0,-4.00655 z"
       id="path205"
       inkscape:connector-curvature="0" />
  </g>
</svg>
