0
SECTION
2
HEADER
9
$INSUNITS
70
4
9
$ACADVER
1
AC1014
9
$HANDSEED
5
FFFF
0
ENDSEC
0
SECTION
2
TABLES
0
TABLE
2
VPORT
5
8
100
AcDbSymbolTable
0
ENDTAB
0
TABLE
2
LTYPE
5
5
100
AcDbSymbolTable
0
LTYPE
5
14
100
AcDbSymbolTableRecord
100
AcDbLinetypeTableRecord
2
BYBLOCK
70
0
0
LTYPE
5
15
100
AcDbSymbolTableRecord
100
AcDbLinetypeTableRecord
2
BYLAYER
70
0
0
ENDTAB
0
TABLE
2
LAYER
5
2
100
AcDbSymbolTable
70
2
0
LAYER
5
50
100
AcDbSymbolTableRecord
100
AcDbLayerTableRecord
2
0
70
0
6
CONTINUOUS
0
ENDTAB
0
TABLE
2
STYLE
5
3
100
AcDbSymbolTable
70
1
0
STYLE
5
11
100
AcDbSymbolTableRecord
100
AcDbTextStyleTableRecord
2
STANDARD
70
0
0
ENDTAB
0
TABLE
2
VIEW
5
6
100
AcDbSymbolTable
70
0
0
ENDTAB
0
TABLE
2
UCS
5
7
100
AcDbSymbolTable
70
0
0
ENDTAB
0
TABLE
2
APPID
5
9
100
AcDbSymbolTable
70
2
0
APPID
5
12
100
AcDbSymbolTableRecord
100
AcDbRegAppTableRecord
2
ACAD
70
0
0
ENDTAB
0
TABLE
2
DIMSTYLE
5
A
100
AcDbSymbolTable
70
1
0
ENDTAB
0
TABLE
2
BLOCK_RECORD
5
1
100
AcDbSymbolTable
70
1
0
BLOCK_RECORD
5
1F
100
AcDbSymbolTableRecord
100
AcDbBlockTableRecord
2
*MODEL_SPACE
0
BLOCK_RECORD
5
1B
100
AcDbSymbolTableRecord
100
AcDbBlockTableRecord
2
*PAPER_SPACE
0
ENDTAB
0
ENDSEC
0
SECTION
2
BLOCKS
0
BLOCK
5
20
100
AcDbEntity
100
AcDbBlockBegin
2
*MODEL_SPACE
0
ENDBLK
5
21
100
AcDbEntity
100
AcDbBlockEnd
0
BLOCK
5
1C
100
AcDbEntity
100
AcDbBlockBegin
2
*PAPER_SPACE
0
ENDBLK
5
1D
100
AcDbEntity
100
AcDbBlockEnd
0
ENDSEC
0
SECTION
2
ENTITIES
0
LWPOLYLINE
5
100
100
AcDbEntity
8
0
100
AcDbPolyline
90
68
70
1
43
0.0
10
9.0000000000000036
20
-75
10
9.0000000000000036
20
-81
10
-9.0000000000000036
20
-81
10
-9.0000000000000036
20
-75
10
-26.999999999999993
20
-75
10
-26.999999999999993
20
-81
10
-44.999999999999986
20
-81
10
-44.999999999999986
20
-75
10
-62.999999999999986
20
-75
10
-62.999999999999986
20
-81
10
-80.999999999999972
20
-81
10
-81
20
-63
10
-75
20
-63
10
-75
20
-45
10
-81
20
-45
10
-81
20
-27
10
-75
20
-27
10
-75
20
-9.0000000000000036
10
-81
20
-9.0000000000000036
10
-81
20
9.0000000000000036
10
-75
20
9.0000000000000036
10
-75
20
26.999999999999993
10
-81
20
26.999999999999993
10
-81
20
44.999999999999986
10
-75
20
44.999999999999986
10
-75
20
62.999999999999986
10
-81
20
62.999999999999986
10
-80.999999999999972
20
81
10
-62.999999999999986
20
81
10
-62.999999999999986
20
75
10
-44.999999999999986
20
75
10
-44.999999999999986
20
81
10
-26.999999999999993
20
81
10
-26.999999999999993
20
75
10
-9.0000000000000036
20
75
10
-9.0000000000000036
20
81
10
9.0000000000000036
20
81
10
9.0000000000000036
20
75
10
27
20
75
10
27
20
81
10
45
20
81
10
45
20
75
10
63
20
75
10
63
20
81
10
81
20
81
10
81
20
62.999999999999986
10
75
20
62.999999999999986
10
75
20
44.999999999999986
10
81
20
44.999999999999986
10
81
20
26.999999999999993
10
75
20
26.999999999999993
10
75
20
9.0000000000000036
10
81
20
9.0000000000000036
10
81
20
-9.0000000000000036
10
75
20
-9.0000000000000036
10
75
20
-27
10
81
20
-27
10
81
20
-45
10
75
20
-45
10
75
20
-63
10
81
20
-63
10
81
20
-81
10
63
20
-81
10
63
20
-75
10
45
20
-75
10
45
20
-81
10
27
20
-81
10
27
20
-75
0
CIRCLE
5
101
100
AcDbEntity
8
0
100
AcDbCircle
10
-4
20
40
30
0
40
0.99999999999999978
0
CIRCLE
5
102
100
AcDbEntity
8
0
100
AcDbCircle
10
0
20
40
30
0
40
1
0
CIRCLE
5
103
100
AcDbEntity
8
0
100
AcDbCircle
10
0
20
0
30
0
40
14.000000000000002
0
LWPOLYLINE
5
104
100
AcDbEntity
8
0
100
AcDbPolyline
90
8
70
1
43
0.0
10
-63.999999999999979
20
25.999999999999996
10
-27.999999999999979
20
25.999999999999996
42
0.41421356237309509
10
-25.999999999999979
20
28
10
-25.999999999999979
20
64
42
0.41421356237309509
10
-27.999999999999979
20
66
10
-63.999999999999986
20
66
42
0.41421356237309509
10
-65.999999999999972
20
63.999999999999993
10
-65.999999999999972
20
28
42
0.41421356237309509
0
CIRCLE
5
105
100
AcDbEntity
8
0
100
AcDbCircle
10
0
20
36
30
0
40
1
0
CIRCLE
5
106
100
AcDbEntity
8
0
100
AcDbCircle
10
4
20
40
30
0
40
0.99999999999999978
0
CIRCLE
5
107
100
AcDbEntity
8
0
100
AcDbCircle
10
0
20
44
30
0
40
1
0
SPLINE
5
108
100
AcDbEntity
8
0
100
AcDbSpline
70
1064
71
3
72
8
73
4
74
0
42
0.000000001
43
0.0000000001
44
0.0000000001
40
0
40
0
40
0
40
0
40
1
40
1
40
1
40
1
10
-48.234651503549131
20
-68.414294757420663
30
0
10
-50.909065266458462
20
-69.670925581103731
30
0
10
-51.278998474567757
20
-69.764678431739284
30
0
10
-53.786284575874255
20
-69.821219741963773
30
0
0
SPLINE
5
109
100
AcDbEntity
8
0
100
AcDbSpline
70
1064
71
3
72
8
73
4
74
0
42
0.000000001
43
0.0000000001
44
0.0000000001
40
0
40
0
40
0
40
0
40
1
40
1
40
1
40
1
10
-53.739157299988094
20
-57.86068911509571
30
0
10
-53.63474635934989
20
-57.974954608143548
30
0
10
-52.828422897431714
20
-58.959602232643249
30
0
10
-51.947333729524843
20
-60.048791321654129
30
0
0
SPLINE
5
110
100
AcDbEntity
8
0
100
AcDbSpline
70
1064
71
3
72
8
73
4
74
0
42
0.000000001
43
0.0000000001
44
0.0000000001
40
0
40
0
40
0
40
0
40
1
40
1
40
1
40
1
10
-51.947333729524843
20
-60.048791321654129
30
0
10
-51.066244561617978
20
-61.137980410665008
30
0
10
-50.248063821614188
20
-62.108702769466646
30
0
10
-50.129160652204696
20
-62.205951212575329
30
0
0
SPLINE
5
111
100
AcDbEntity
8
0
100
AcDbSpline
70
1064
71
3
72
8
73
4
74
0
42
0.000000001
43
0.0000000001
44
0.0000000001
40
0
40
0
40
0
40
0
40
1
40
1
40
1
40
1
10
-50.129160652204696
20
-62.205951212575329
30
0
10
-49.995312499339526
20
-62.315424032162355
30
0
10
-49.471609932252207
20
-62.382766192875565
30
0
10
-48.75415691234609
20
-62.382766192875565
30
0
0
SPLINE
5
112
100
AcDbEntity
8
0
100
AcDbSpline
70
1064
71
3
72
8
73
4
74
0
42
0.000000001
43
0.0000000001
44
0.0000000001
40
0
40
0
40
0
40
0
40
1
40
1
40
1
40
1
10
-48.75415691234609
20
-62.382766192875565
30
0
10
-47.484200417006448
20
-62.382766192875565
30
0
10
-47.427626475813696
20
-62.338787805424943
30
0
10
-47.422821565739795
20
-61.347932139216852
30
0
0
SPLINE
5
113
100
AcDbEntity
8
0
100
AcDbSpline
70
1064
71
3
72
8
73
4
74
0
42
0.000000001
43
0.0000000001
44
0.0000000001
40
0
40
0
40
0
40
0
40
1
40
1
40
1
40
1
10
-47.422821565739795
20
-61.347932139216852
30
0
10
-47.419077162133817
20
-60.603827775997594
30
0
10
-47.637374260814042
20
-60.402706803226735
30
0
10
-48.451398631237765
20
-60.399684359793149
30
0
0
LINE
5
114
100
AcDbEntity
8
0
100
AcDbLine
10
-50.859123569561284
20
-58.323498216569014
30
0
11
-52.52919283976474
21
-56.25003675919325
31
0
0
LINE
5
115
100
AcDbEntity
8
0
100
AcDbLine
10
-49.189054299357835
20
-60.396959673944785
30
0
11
-50.859123569561284
21
-58.323498216569014
31
0
0
LINE
5
116
100
AcDbEntity
8
0
100
AcDbLine
10
-48.451398631237765
20
-60.399684359793149
30
0
11
-49.189054299357835
21
-60.396959673944785
31
0
0
LINE
5
117
100
AcDbEntity
8
0
100
AcDbLine
10
-50.859661980537311
20
-58.345711748201012
30
0
11
-52.522878747409564
21
-56.28902260850257
31
0
0
LINE
5
118
100
AcDbEntity
8
0
100
AcDbLine
10
-49.196445213665058
20
-60.402400887899447
30
0
11
-50.859661980537311
21
-58.345711748201012
31
0
0
LINE
5
119
100
AcDbEntity
8
0
100
AcDbLine
10
-48.556209301236954
20
-60.404591241642819
30
0
11
-49.196445213665058
21
-60.402400887899447
31
0
0
LINE
5
120
100
AcDbEntity
8
0
100
AcDbLine
10
-47.633075130747898
20
-62.312042648078084
30
0
11
-47.589985937181929
21
-61.476445128774145
31
0
0
LINE
5
121
100
AcDbEntity
8
0
100
AcDbLine
10
-48.784491476199761
20
-62.35287214709318
30
0
11
-47.633075130747898
21
-62.312042648078084
31
0
0
SPLINE
5
122
100
AcDbEntity
8
0
100
AcDbSpline
70
1064
71
3
72
8
73
4
74
0
42
0.000000001
43
0.0000000001
44
0.0000000001
40
0
40
0
40
0
40
0
40
1
40
1
40
1
40
1
10
-55.859040388561752
20
-69.866372844271183
30
0
10
-57.664413968588264
20
-69.564752568180367
30
0
10
-58.734828014245835
20
-68.947590829171673
30
0
10
-61.173254614815775
20
-66.802402424724932
30
0
0
SPLINE
5
123
100
AcDbEntity
8
0
100
AcDbSpline
70
1064
71
3
72
8
73
4
74
0
42
0.000000001
43
0.0000000001
44
0.0000000001
40
0
40
0
40
0
40
0
40
1
40
1
40
1
40
1
10
-61.173254614815775
20
-66.802402424724932
30
0
10
-64.470051071652819
20
-63.902059995437369
30
0
10
-66.080136464482052
20
-61.243500804223494
30
0
10
-66.316286781662654
20
-58.310262280075108
30
0
0
SPLINE
5
124
100
AcDbEntity
8
0
100
AcDbSpline
70
1064
71
3
72
8
73
4
74
0
42
0.000000001
43
0.0000000001
44
0.0000000001
40
0
40
0
40
0
40
0
40
1
40
1
40
1
40
1
10
-52.946832523446517
20
-69.868767141566082
30
0
10
-54.75155348410815
20
-70.037815951424278
30
0
10
-54.833310375043069
20
-70.037750689487808
30
0
10
-55.859036309690715
20
-69.866629813146105
30
0
0
SPLINE
5
125
100
AcDbEntity
8
0
100
AcDbSpline
70
1064
71
3
72
8
73
4
74
0
42
0.000000001
43
0.0000000001
44
0.0000000001
40
0
40
0
40
0
40
0
40
1
40
1
40
1
40
1
10
-54.662642253385762
20
-61.476445128774159
30
0
10
-54.614540127323316
20
-60.54358692974845
30
0
10
-54.713897346754756
20
-60.408054203147692
30
0
10
-55.448355179986926
20
-60.404591241642819
30
0
0
SPLINE
5
126
100
AcDbEntity
8
0
100
AcDbSpline
70
1064
71
3
72
8
73
4
74
0
42
0.000000001
43
0.0000000001
44
0.0000000001
40
0
40
0
40
0
40
0
40
1
40
1
40
1
40
1
10
-55.448355179986926
20
-60.404591241642819
30
0
10
-55.854015219452194
20
-60.402666014516427
30
0
10
-55.908076576090167
20
-60.357096867363921
30
0
10
-55.908076576090167
20
-60.016980206487425
30
0
0
SPLINE
5
127
100
AcDbEntity
8
0
100
AcDbSpline
70
1064
71
3
72
8
73
4
74
0
42
0.000000001
43
0.0000000001
44
0.0000000001
40
0
40
0
40
0
40
0
40
1
40
1
40
1
40
1
10
-55.908076576090167
20
-60.016980206487425
30
0
10
-55.908076576090167
20
-59.730602671437495
30
0
10
-55.663637992975616
20
-59.385207951447555
30
0
10
-54.957063322107793
20
-58.67317575114096
30
0
0
SPLINE
5
128
100
AcDbEntity
8
0
100
AcDbSpline
70
1064
71
3
72
8
73
4
74
0
42
0.000000001
43
0.0000000001
44
0.0000000001
40
0
40
0
40
0
40
0
40
1
40
1
40
1
40
1
10
-54.957063322107793
20
-58.67317575114096
30
0
10
-54.434005216643293
20
-58.146075484485245
30
0
10
-53.965204253626212
20
-57.714816450432693
30
0
10
-53.915287029955216
20
-57.714816450432693
30
0
0
SPLINE
5
129
100
AcDbEntity
8
0
100
AcDbSpline
70
1064
71
3
72
8
73
4
74
0
42
0.000000001
43
0.0000000001
44
0.0000000001
40
0
40
0
40
0
40
0
40
1
40
1
40
1
40
1
10
-58.301219550479722
20
-60.402396809028403
30
0
10
-59.070784226671236
20
-60.402396809028403
30
0
10
-59.161506476131159
20
-60.505926713524033
30
0
10
-59.161506476131159
20
-61.384128040741317
30
0
0
SPLINE
5
130
100
AcDbEntity
8
0
100
AcDbSpline
70
1064
71
3
72
8
73
4
74
0
42
0.000000001
43
0.0000000001
44
0.0000000001
40
0
40
0
40
0
40
0
40
1
40
1
40
1
40
1
10
-59.161506476131159
20
-61.384128040741317
30
0
10
-59.161506476131159
20
-61.829634571303338
30
0
10
-59.117479142228156
20
-62.238166135974055
30
0
10
-59.063666596723053
20
-62.291978681479165
30
0
0
SPLINE
5
131
100
AcDbEntity
8
0
100
AcDbSpline
70
1064
71
3
72
8
73
4
74
0
42
0.000000001
43
0.0000000001
44
0.0000000001
40
0
40
0
40
0
40
0
40
1
40
1
40
1
40
1
10
-59.063666596723053
20
-62.291978681479165
30
0
10
-59.00985405121795
20
-62.345791226984275
30
0
10
-58.007308340636506
20
-62.372312046424447
30
0
10
-56.835779082133357
20
-62.350918367869582
30
0
0
SPLINE
5
132
100
AcDbEntity
8
0
100
AcDbSpline
70
1064
71
3
72
8
73
4
74
0
42
0.000000001
43
0.0000000001
44
0.0000000001
40
0
40
0
40
0
40
0
40
1
40
1
40
1
40
1
10
-56.476487648542573
20
-69.742791209789743
30
0
10
-58.205080560291343
20
-69.298622548925721
30
0
10
-59.565180105404572
20
-68.341323754685391
30
0
10
-62.192495144524962
20
-65.719588611134697
30
0
0
SPLINE
5
133
100
AcDbEntity
8
0
100
AcDbSpline
70
1064
71
3
72
8
73
4
74
0
42
0.000000001
43
0.0000000001
44
0.0000000001
40
0
40
0
40
0
40
0
40
1
40
1
40
1
40
1
10
-62.192495144524962
20
-65.719588611134697
30
0
10
-64.405372413722517
20
-63.5114142802353
30
0
10
-65.203207745026248
20
-62.348899326709493
30
0
10
-65.891635518679479
20
-60.329609355489509
30
0
0
SPLINE
5
134
100
AcDbEntity
8
0
100
AcDbSpline
70
1064
71
3
72
8
73
4
74
0
42
0.000000001
43
0.0000000001
44
0.0000000001
40
0
40
0
40
0
40
0
40
1
40
1
40
1
40
1
10
-65.891635518679479
20
-60.329609355489509
30
0
10
-66.218067567248724
20
-59.37213109092383
30
0
10
-66.277068436704596
20
-58.96305703640607
30
0
10
-66.278965111733768
20
-57.64408882676419
30
0
0
SPLINE
5
135
100
AcDbEntity
8
0
100
AcDbSpline
70
1064
71
3
72
8
73
4
74
0
42
0.000000001
43
0.0000000001
44
0.0000000001
40
0
40
0
40
0
40
0
40
1
40
1
40
1
40
1
10
-53.786284575874255
20
-69.821219741963773
30
0
10
-54.99217016506713
20
-69.848433969479146
30
0
10
-56.202762771429192
20
-69.813094630871078
30
0
10
-56.476487648542573
20
-69.742791209789743
30
0
0
SPLINE
5
136
100
AcDbEntity
8
0
100
AcDbSpline
70
1064
71
3
72
8
73
4
74
0
42
0.000000001
43
0.0000000001
44
0.0000000001
40
0
40
0
40
0
40
0
40
1
40
1
40
1
40
1
10
-54.57940881113781
20
-62.159019722498634
30
0
10
-54.431574209509122
20
-61.773770353669889
30
0
10
-54.485704906954602
20
-60.749753465984007
30
0
10
-54.663290793879604
20
-60.57216757905902
30
0
0
SPLINE
5
137
100
AcDbEntity
8
0
100
AcDbSpline
70
1064
71
3
72
8
73
4
74
0
42
0.000000001
43
0.0000000001
44
0.0000000001
40
0
40
0
40
0
40
0
40
1
40
1
40
1
40
1
10
-54.663290793879604
20
-60.57216757905902
30
0
10
-54.756647994025201
20
-60.478810378913408
30
0
10
-55.07491822166245
20
-60.402425361125637
30
0
10
-55.370554793951577
20
-60.402425361125637
30
0
0
SPLINE
5
138
100
AcDbEntity
8
0
100
AcDbSpline
70
1064
71
3
72
8
73
4
74
0
42
0.000000001
43
0.0000000001
44
0.0000000001
40
0
40
0
40
0
40
0
40
1
40
1
40
1
40
1
10
-55.370554793951577
20
-60.402425361125637
30
0
10
-55.863898323959049
20
-60.402425361125637
30
0
10
-55.908076576090167
20
-60.37014517579042
30
0
10
-55.908076576090167
20
-60.009634159761525
30
0
0
SPLINE
5
139
100
AcDbEntity
8
0
100
AcDbSpline
70
1064
71
3
72
8
73
4
74
0
42
0.000000001
43
0.0000000001
44
0.0000000001
40
0
40
0
40
0
40
0
40
1
40
1
40
1
40
1
10
-55.908076576090167
20
-60.009634159761525
30
0
10
-55.908076576090167
20
-59.711228034042712
30
0
10
-55.670298789368388
20
-59.380888427026278
30
0
10
-54.918534306353884
20
-58.634887388777848
30
0
0
SPLINE
5
140
100
AcDbEntity
8
0
100
AcDbSpline
70
1064
71
3
72
8
73
4
74
0
42
0.000000001
43
0.0000000001
44
0.0000000001
40
0
40
0
40
0
40
0
40
1
40
1
40
1
40
1
10
-54.918534306353884
20
-58.634887388777848
30
0
10
-54.064198453535937
20
-57.787098123963816
30
0
10
-53.903058574605829
20
-57.681316682659372
30
0
10
-53.739157299988094
20
-57.86068911509571
30
0
0
SPLINE
5
141
100
AcDbEntity
8
0
100
AcDbSpline
70
1064
71
3
72
8
73
4
74
0
42
0.000000001
43
0.0000000001
44
0.0000000001
40
0
40
0
40
0
40
0
40
1
40
1
40
1
40
1
10
-59.13417396135592
20
-61.234327423275943
30
0
10
-59.158039435755249
20
-61.652950114876077
30
0
10
-59.14413456441234
20
-62.082614310355702
30
0
10
-59.103252040073848
20
-62.189134027316662
30
0
0
SPLINE
5
142
100
AcDbEntity
8
0
100
AcDbSpline
70
1064
71
3
72
8
73
4
74
0
42
0.000000001
43
0.0000000001
44
0.0000000001
40
0
40
0
40
0
40
0
40
1
40
1
40
1
40
1
10
-59.103252040073848
20
-62.189134027316662
30
0
10
-59.044789581593989
20
-62.341488018047116
30
0
10
-58.563380828221703
20
-62.382811060456902
30
0
10
-56.847102028113959
20
-62.382811060456902
30
0
0
SPLINE
5
143
100
AcDbEntity
8
0
100
AcDbSpline
70
1064
71
3
72
8
73
4
74
0
42
0.000000001
43
0.0000000001
44
0.0000000001
40
0
40
0
40
0
40
0
40
1
40
1
40
1
40
1
10
-56.847102028113959
20
-62.382811060456902
30
0
10
-54.988050505326349
20
-62.382811060456902
30
0
10
-54.652571520811513
20
-62.349711022044559
30
0
10
-54.57940881113781
20
-62.159019722498634
30
0
0
LINE
5
144
100
AcDbEntity
8
0
100
AcDbLine
10
-59.090778852462655
20
-60.473197852375471
30
0
11
-59.13417396135592
21
-61.234327423275943
31
0
0
LINE
5
145
100
AcDbEntity
8
0
100
AcDbLine
10
-58.489602209022408
20
-60.429700771706436
30
0
11
-59.090778852462655
21
-60.473197852375471
31
0
0
LINE
5
146
100
AcDbEntity
8
0
100
AcDbLine
10
-57.88842556558216
20
-60.386203691037409
30
0
11
-58.489602209022408
21
-60.429700771706436
31
0
0
LINE
5
147
100
AcDbEntity
8
0
100
AcDbLine
10
-57.88842556558216
20
-55.372753177957819
30
0
11
-57.88842556558216
21
-60.386203691037409
31
0
0
LINE
5
148
100
AcDbEntity
8
0
100
AcDbLine
10
-54.705735525822774
20
-62.3120181748519
30
0
11
-54.662642253385762
21
-61.476445128774159
31
0
0
LINE
5
149
100
AcDbEntity
8
0
100
AcDbLine
10
-56.835779082133357
20
-62.350918367869582
30
0
11
-54.705735525822774
21
-62.3120181748519
31
0
0
LINE
5
150
100
AcDbEntity
8
0
100
AcDbLine
10
-57.888429644453197
20
-60.402396809028417
30
0
11
-58.301219550479729
21
-60.402396809028403
31
0
0
LINE
5
151
100
AcDbEntity
8
0
100
AcDbLine
10
-57.888429644453197
20
-55.310085403445548
30
0
11
-57.888429644453197
21
-60.402396809028417
31
0
0
LINE
5
152
100
AcDbEntity
8
0
100
AcDbLine
10
-55.859036309690715
20
-69.866629813146105
30
0
11
-55.859040388561752
21
-69.866372844271183
31
0
0
SPLINE
5
153
100
AcDbEntity
8
0
100
AcDbSpline
70
1064
71
3
72
8
73
4
74
0
42
0.000000001
43
0.0000000001
44
0.0000000001
40
0
40
0
40
0
40
0
40
1
40
1
40
1
40
1
10
-66.316286781662654
20
-58.310262280075108
30
0
10
-66.462807986819513
20
-56.490310814985676
30
0
10
-65.845360726838692
20
-52.386783009127413
30
0
10
-65.249152148313584
20
-51.218113039216611
30
0
0
SPLINE
5
154
100
AcDbEntity
8
0
100
AcDbSpline
70
1064
71
3
72
8
73
4
74
0
42
0.000000001
43
0.0000000001
44
0.0000000001
40
0
40
0
40
0
40
0
40
1
40
1
40
1
40
1
10
-66.278965111733768
20
-57.64408882676419
30
0
10
-66.286535496366355
20
-52.385934603953075
30
0
10
-64.316395921063631
20
-47.705960349712342
30
0
10
-61.068549995463371
20
-45.266946391714015
30
0
0
SPLINE
5
155
100
AcDbEntity
8
0
100
AcDbSpline
70
1064
71
3
72
8
73
4
74
0
42
0.000000001
43
0.0000000001
44
0.0000000001
40
0
40
0
40
0
40
0
40
1
40
1
40
1
40
1
10
-47.589985937181929
20
-61.476445128774159
30
0
10
-47.53994634738001
20
-60.50543724900038
30
0
10
-47.627996936314965
20
-60.407731972336279
30
0
10
-48.556209301236954
20
-60.404591241642819
30
0
0
SPLINE
5
156
100
AcDbEntity
8
0
100
AcDbSpline
70
1064
71
3
72
8
73
4
74
0
42
0.000000001
43
0.0000000001
44
0.0000000001
40
0
40
0
40
0
40
0
40
1
40
1
40
1
40
1
10
-40.142456900050888
20
-57.64408882676419
30
0
10
-40.359379419193822
20
-60.172177170326115
30
0
10
-41.124710227255683
20
-62.002505283317092
30
0
10
-42.891032696036376
20
-64.217438303514001
30
0
0
SPLINE
5
157
100
AcDbEntity
8
0
100
AcDbSpline
70
1064
71
3
72
8
73
4
74
0
42
0.000000001
43
0.0000000001
44
0.0000000001
40
0
40
0
40
0
40
0
40
1
40
1
40
1
40
1
10
-42.891032696036376
20
-64.217438303514001
30
0
10
-44.629565816486419
20
-66.397525528497525
30
0
10
-45.652750614482088
20
-67.201132462309403
30
0
10
-48.234651503549131
20
-68.414294757420663
30
0
0
LINE
5
158
100
AcDbEntity
8
0
100
AcDbLine
10
-55.978808278629721
20
-48.449611958247225
30
0
11
-57.534795604981703
21
-48.449611958247225
31
0
0
LINE
5
159
100
AcDbEntity
8
0
100
AcDbLine
10
-55.908080654961196
20
-52.730032242955303
30
0
11
-55.978808278629721
21
-48.449611958247225
31
0
0
LINE
5
160
100
AcDbEntity
8
0
100
AcDbLine
10
-55.837353031292693
20
-57.010452527663404
30
0
11
-55.908080654961196
21
-52.730032242955303
31
0
0
LINE
5
161
100
AcDbEntity
8
0
100
AcDbLine
10
-52.938858330581937
20
-54.109200510136034
30
0
11
-55.837353031292693
21
-57.010452527663404
31
0
0
SPLINE
5
162
100
AcDbEntity
8
0
100
AcDbSpline
70
1064
71
3
72
8
73
4
74
0
42
0.000000001
43
0.0000000001
44
0.0000000001
40
0
40
0
40
0
40
0
40
1
40
1
40
1
40
1
10
-51.161490279050703
20
-42.647919618527546
30
0
10
-46.51279688674272
20
-44.397681870924508
30
0
10
-43.02557017810571
20
-47.346042809418392
30
0
10
-41.337125593909938
20
-50.954169294834315
30
0
0
SPLINE
5
163
100
AcDbEntity
8
0
100
AcDbSpline
70
1064
71
3
72
8
73
4
74
0
42
0.000000001
43
0.0000000001
44
0.0000000001
40
0
40
0
40
0
40
0
40
1
40
1
40
1
40
1
10
-41.337125593909938
20
-50.954169294834315
30
0
10
-40.54776615660753
20
-52.640994567230976
30
0
10
-40.171694247597358
20
-54.432361304138823
30
0
10
-40.155399157830587
20
-56.583194866091738
30
0
0
SPLINE
5
164
100
AcDbEntity
8
0
100
AcDbSpline
70
1064
71
3
72
8
73
4
74
0
42
0.000000001
43
0.0000000001
44
0.0000000001
40
0
40
0
40
0
40
0
40
1
40
1
40
1
40
1
10
-51.685935200665575
20
-42.510298509959192
30
0
10
-50.426848896622154
20
-42.908043500189805
30
0
10
-47.791885974319612
20
-44.203044263656594
30
0
10
-46.501677884313622
20
-45.058197930116165
30
0
0
SPLINE
5
165
100
AcDbEntity
8
0
100
AcDbSpline
70
1064
71
3
72
8
73
4
74
0
42
0.000000001
43
0.0000000001
44
0.0000000001
40
0
40
0
40
0
40
0
40
1
40
1
40
1
40
1
10
-46.501677884313622
20
-45.058197930116165
30
0
10
-44.54916718960466
20
-46.352325815182418
30
0
10
-42.376107859406659
20
-48.826205962749292
30
0
10
-41.417593561599233
20
-50.846085330833176
30
0
0
SPLINE
5
166
100
AcDbEntity
8
0
100
AcDbSpline
70
1064
71
3
72
8
73
4
74
0
42
0.000000001
43
0.0000000001
44
0.0000000001
40
0
40
0
40
0
40
0
40
1
40
1
40
1
40
1
10
-41.417593561599233
20
-50.846085330833176
30
0
10
-40.494496100949462
20
-52.791321359059282
30
0
10
-39.967248994936654
20
-55.60218559455123
30
0
10
-40.142456900050888
20
-57.64408882676419
30
0
0
SPLINE
5
167
100
AcDbEntity
8
0
100
AcDbSpline
70
1064
71
3
72
8
73
4
74
0
42
0.000000001
43
0.0000000001
44
0.0000000001
40
0
40
0
40
0
40
0
40
1
40
1
40
1
40
1
10
-48.463867739977928
20
-53.046883023473953
30
0
10
-47.492668153265726
20
-53.046883023473953
30
0
10
-47.420892259742388
20
-52.978639432263002
30
0
10
-47.420892259742388
20
-52.055248292899051
30
0
0
SPLINE
5
168
100
AcDbEntity
8
0
100
AcDbSpline
70
1064
71
3
72
8
73
4
74
0
42
0.000000001
43
0.0000000001
44
0.0000000001
40
0
40
0
40
0
40
0
40
1
40
1
40
1
40
1
10
-47.420892259742388
20
-52.055248292899051
30
0
10
-47.420892259742388
20
-51.254782089780626
30
0
10
-47.688070548851854
20
-51.065602011951498
30
0
10
-48.810159811594573
20
-51.071555124220467
30
0
0
SPLINE
5
169
100
AcDbEntity
8
0
100
AcDbSpline
70
1064
71
3
72
8
73
4
74
0
42
0.000000001
43
0.0000000001
44
0.0000000001
40
0
40
0
40
0
40
0
40
1
40
1
40
1
40
1
10
-48.810159811594573
20
-51.071555124220467
30
0
10
-49.329746797812142
20
-51.074334874827741
30
0
10
-49.893642560033804
20
-51.153878978228633
30
0
10
-50.063262411836277
20
-51.248370104520703
30
0
0
SPLINE
5
170
100
AcDbEntity
8
0
100
AcDbSpline
70
1064
71
3
72
8
73
4
74
0
42
0.000000001
43
0.0000000001
44
0.0000000001
40
0
40
0
40
0
40
0
40
1
40
1
40
1
40
1
10
-50.063262411836277
20
-51.248370104520703
30
0
10
-50.232882263638743
20
-51.34286123081278
30
0
10
-51.559322965008469
20
-52.645509877461727
30
0
10
-53.010907508464314
20
-54.143144874851679
30
0
0
LINE
5
171
100
AcDbEntity
8
0
100
AcDbLine
10
-49.335118670959289
20
-53.046883023473953
30
0
11
-48.463867739977928
21
-53.046883023473953
31
0
0
LINE
5
172
100
AcDbEntity
8
0
100
AcDbLine
10
-50.932159834233033
20
-54.648459891333601
30
0
11
-49.335118670959289
21
-53.046883023473953
31
0
0
LINE
5
173
100
AcDbEntity
8
0
100
AcDbLine
10
-52.52919283976474
20
-56.25003675919325
30
0
11
-50.932159834233033
21
-54.648459891333601
31
0
0
LINE
5
174
100
AcDbEntity
8
0
100
AcDbLine
10
-50.040363629871166
20
-51.207948492608665
30
0
11
-52.938858330581937
21
-54.109200510136034
31
0
0
LINE
5
175
100
AcDbEntity
8
0
100
AcDbLine
10
-48.801353529039773
20
-51.207948492608665
30
0
11
-50.040363629871166
21
-51.207948492608665
31
0
0
LINE
5
176
100
AcDbEntity
8
0
100
AcDbLine
10
-47.562347507079394
20
-51.207948492608665
30
0
11
-48.801353529039773
21
-51.207948492608665
31
0
0
LINE
5
177
100
AcDbEntity
8
0
100
AcDbLine
10
-47.562347507079394
20
-52.127391284815126
30
0
11
-47.562347507079394
21
-51.207948492608665
31
0
0
LINE
5
178
100
AcDbEntity
8
0
100
AcDbLine
10
-47.562347507079394
20
-53.046838155892608
30
0
11
-47.562347507079394
21
-52.127391284815126
31
0
0
LINE
5
179
100
AcDbEntity
8
0
100
AcDbLine
10
-48.521082063922464
20
-53.046838155892608
30
0
11
-47.562347507079394
21
-53.046838155892608
31
0
0
LINE
5
180
100
AcDbEntity
8
0
100
AcDbLine
10
-49.479816620765519
20
-53.046838155892608
30
0
11
-48.521082063922464
21
-53.046838155892608
31
0
0
LINE
5
181
100
AcDbEntity
8
0
100
AcDbLine
10
-51.001345644652034
20
-54.667928342762067
30
0
11
-49.479816620765519
21
-53.046838155892608
31
0
0
LINE
5
182
100
AcDbEntity
8
0
100
AcDbLine
10
-52.522878747409564
20
-56.28902260850257
30
0
11
-51.001345644652034
21
-54.667928342762067
31
0
0
SPLINE
5
183
100
AcDbEntity
8
0
100
AcDbSpline
70
1064
71
3
72
8
73
4
74
0
42
0.000000001
43
0.0000000001
44
0.0000000001
40
0
40
0
40
0
40
0
40
1
40
1
40
1
40
1
10
-40.155399157830587
20
-56.583194866091738
30
0
10
-40.140054445013931
20
-58.608350253853544
30
0
10
-40.347713848046652
20
-59.859209475028493
30
0
10
-40.921460083806913
20
-61.197711398035338
30
0
0
SPLINE
5
184
100
AcDbEntity
8
0
100
AcDbSpline
70
1064
71
3
72
8
73
4
74
0
42
0.000000001
43
0.0000000001
44
0.0000000001
40
0
40
0
40
0
40
0
40
1
40
1
40
1
40
1
10
-40.921460083806913
20
-61.197711398035338
30
0
10
-41.69605808685003
20
-63.004765472926401
30
0
10
-44.237459865455442
20
-66.087808693411191
30
0
10
-45.858684655068913
20
-67.187194959998266
30
0
0
SPLINE
5
185
100
AcDbEntity
8
0
100
AcDbSpline
70
1064
71
3
72
8
73
4
74
0
42
0.000000001
43
0.0000000001
44
0.0000000001
40
0
40
0
40
0
40
0
40
1
40
1
40
1
40
1
10
-45.858684655068913
20
-67.187194959998266
30
0
10
-46.672786524042223
20
-67.739249759618446
30
0
10
-49.557563981477486
20
-69.122305190891211
30
0
10
-50.683585275893591
20
-69.500408377674574
30
0
0
SPLINE
5
186
100
AcDbEntity
8
0
100
AcDbSpline
70
1064
71
3
72
8
73
4
74
0
42
0.000000001
43
0.0000000001
44
0.0000000001
40
0
40
0
40
0
40
0
40
1
40
1
40
1
40
1
10
-50.683585275893591
20
-69.500408377674574
30
0
10
-51.038781522969757
20
-69.619678645476796
30
0
10
-52.057247067183155
20
-69.785439885284433
30
0
10
-52.946832523446517
20
-69.868767141566082
30
0
0
SPLINE
5
187
100
AcDbEntity
8
0
100
AcDbSpline
70
1064
71
3
72
8
73
4
74
0
42
0.000000001
43
0.0000000001
44
0.0000000001
40
0
40
0
40
0
40
0
40
1
40
1
40
1
40
1
10
-53.915287029955216
20
-57.714816450432693
30
0
10
-53.865353490800089
20
-57.714816450432693
30
0
10
-53.036902153541547
20
-58.680256671249865
30
0
10
-52.074239643896135
20
-59.860237350528173
30
0
0
SPLINE
5
188
100
AcDbEntity
8
0
100
AcDbSpline
70
1064
71
3
72
8
73
4
74
0
42
0.000000001
43
0.0000000001
44
0.0000000001
40
0
40
0
40
0
40
0
40
1
40
1
40
1
40
1
10
-52.074239643896135
20
-59.860237350528173
30
0
10
-51.111577134250723
20
-61.040218029806482
30
0
10
-50.23663482498678
20
-62.092970563902092
30
0
10
-50.129923401087389
20
-62.199681987801483
30
0
0
SPLINE
5
189
100
AcDbEntity
8
0
100
AcDbSpline
70
1064
71
3
72
8
73
4
74
0
42
0.000000001
43
0.0000000001
44
0.0000000001
40
0
40
0
40
0
40
0
40
1
40
1
40
1
40
1
10
-50.129923401087389
20
-62.199681987801483
30
0
10
-49.989761155867043
20
-62.339844233021829
30
0
10
-49.616267093348142
20
-62.382370542385608
30
0
10
-48.784491476199761
20
-62.35287214709318
30
0
0
SPLINE
5
190
100
AcDbEntity
8
0
100
AcDbSpline
70
1064
71
3
72
8
73
4
74
0
42
0.000000001
43
0.0000000001
44
0.0000000001
40
0
40
0
40
0
40
0
40
1
40
1
40
1
40
1
10
-65.249152148313584
20
-51.218113039216611
30
0
10
-65.094930034651185
20
-50.915809552228176
30
0
10
-64.880972854747398
20
-50.413708686118277
30
0
10
-64.773694467774774
20
-50.10233582939356
30
0
0
SPLINE
5
191
100
AcDbEntity
8
0
100
AcDbSpline
70
1064
71
3
72
8
73
4
74
0
42
0.000000001
43
0.0000000001
44
0.0000000001
40
0
40
0
40
0
40
0
40
1
40
1
40
1
40
1
10
-64.773694467774774
20
-50.10233582939356
30
0
10
-64.14877879493713
20
-48.288504710285366
30
0
10
-62.743677065744635
20
-46.593964253334548
30
0
10
-59.929924989563105
20
-44.260782722528546
30
0
0
SPLINE
5
192
100
AcDbEntity
8
0
100
AcDbSpline
70
1064
71
3
72
8
73
4
74
0
42
0.000000001
43
0.0000000001
44
0.0000000001
40
0
40
0
40
0
40
0
40
1
40
1
40
1
40
1
10
-59.929924989563105
20
-44.260782722528546
30
0
10
-58.609215101991211
20
-43.165642560684191
30
0
10
-57.877718529127158
20
-42.767287779234522
30
0
10
-57.14720088531044
20
-42.745378123494298
30
0
0
SPLINE
5
193
100
AcDbEntity
8
0
100
AcDbSpline
70
1064
71
3
72
8
73
4
74
0
42
0.000000001
43
0.0000000001
44
0.0000000001
40
0
40
0
40
0
40
0
40
1
40
1
40
1
40
1
10
-57.14720088531044
20
-42.745378123494298
30
0
10
-56.856226462609158
20
-42.736653418360113
30
0
10
-56.439773730397235
20
-42.637263567960424
30
0
10
-56.221745837205042
20
-42.524519493806956
30
0
0
SPLINE
5
194
100
AcDbEntity
8
0
100
AcDbSpline
70
1064
71
3
72
8
73
4
74
0
42
0.000000001
43
0.0000000001
44
0.0000000001
40
0
40
0
40
0
40
0
40
1
40
1
40
1
40
1
10
-56.221745837205042
20
-42.524519493806956
30
0
10
-55.018128100305113
20
-41.902104168911009
30
0
10
-53.013032600271188
20
-41.950999635388868
30
0
10
-51.161490279050703
20
-42.647919618527546
30
0
0
SPLINE
5
195
100
AcDbEntity
8
0
100
AcDbSpline
70
1064
71
3
72
8
73
4
74
0
42
0.000000001
43
0.0000000001
44
0.0000000001
40
0
40
0
40
0
40
0
40
1
40
1
40
1
40
1
10
-61.068549995463371
20
-45.266946391714015
30
0
10
-60.705950597466881
20
-44.994649119461286
30
0
10
-60.038378091392502
20
-44.442068145478181
30
0
10
-59.585052365065074
20
-44.038987991939692
30
0
0
SPLINE
5
196
100
AcDbEntity
8
0
100
AcDbSpline
70
1064
71
3
72
8
73
4
74
0
42
0.000000001
43
0.0000000001
44
0.0000000001
40
0
40
0
40
0
40
0
40
1
40
1
40
1
40
1
10
-59.585052365065074
20
-44.038987991939692
30
0
10
-58.579806441861457
20
-43.145160509804647
30
0
10
-58.01314928395216
20
-42.840056877853783
30
0
10
-57.260846389961628
20
-42.787572004869091
30
0
0
SPLINE
5
197
100
AcDbEntity
8
0
100
AcDbSpline
70
1064
71
3
72
8
73
4
74
0
42
0.000000001
43
0.0000000001
44
0.0000000001
40
0
40
0
40
0
40
0
40
1
40
1
40
1
40
1
10
-57.260846389961628
20
-42.787572004869091
30
0
10
-56.944721648486421
20
-42.76551958864281
30
0
10
-56.335978699284638
20
-42.616239027233824
30
0
10
-55.908080654961211
20
-42.455843542266784
30
0
0
SPLINE
5
198
100
AcDbEntity
8
0
100
AcDbSpline
70
1064
71
3
72
8
73
4
74
0
42
0.000000001
43
0.0000000001
44
0.0000000001
40
0
40
0
40
0
40
0
40
1
40
1
40
1
40
1
10
-55.908080654961211
20
-42.455843542266784
30
0
10
-54.771397191671426
20
-42.029760595551906
30
0
10
-53.140521793199852
20
-42.050793294020572
30
0
10
-51.685935200665575
20
-42.510298509959192
30
0
0
SPLINE
5
199
100
AcDbEntity
8
0
100
AcDbSpline
70
1064
71
3
72
8
73
4
74
0
42
0.000000001
43
0.0000000001
44
0.0000000001
40
0
40
0
40
0
40
0
40
1
40
1
40
1
40
1
10
-53.010907508464314
20
-54.143144874851679
30
0
10
-54.462492051920151
20
-55.64077987224163
30
0
10
-55.707237045420406
20
-56.86611759737886
30
0
10
-55.777010213267786
20
-56.86611759737886
30
0
0
SPLINE
5
200
100
AcDbEntity
8
0
100
AcDbSpline
70
1064
71
3
72
8
73
4
74
0
42
0.000000001
43
0.0000000001
44
0.0000000001
40
0
40
0
40
0
40
0
40
1
40
1
40
1
40
1
10
-55.777010213267786
20
-56.86611759737886
30
0
10
-55.84817019726551
20
-56.86611759737886
30
0
10
-55.920317268052628
20
-55.018405336055984
30
0
10
-55.941335690472698
20
-52.657889251039229
30
0
0
SPLINE
5
201
100
AcDbEntity
8
0
100
AcDbSpline
70
1064
71
3
72
8
73
4
74
0
42
0.000000001
43
0.0000000001
44
0.0000000001
40
0
40
0
40
0
40
0
40
1
40
1
40
1
40
1
10
-59.13385988828658
20
-49.28525842400353
30
0
10
-59.181962014349011
20
-50.218116623029225
30
0
10
-59.082604794917572
20
-50.353651389065497
30
0
10
-58.348146961685394
20
-50.357112311134856
30
0
0
LINE
5
202
100
AcDbEntity
8
0
100
AcDbLine
10
-57.888425565582168
20
-50.359304704313743
30
0
11
-57.88842556558216
21
-55.372753177957819
31
0
0
LINE
5
203
100
AcDbEntity
8
0
100
AcDbLine
10
-58.348146961685394
20
-50.357112311134856
30
0
11
-57.888425565582168
21
-50.359304704313743
31
0
0
LINE
5
204
100
AcDbEntity
8
0
100
AcDbLine
10
-59.090778852462655
20
-48.449611958247225
30
0
11
-59.13385988828658
21
-49.28525842400353
31
0
0
LINE
5
205
100
AcDbEntity
8
0
100
AcDbLine
10
-57.534795604981703
20
-48.449611958247225
30
0
11
-59.090778852462655
21
-48.449611958247225
31
0
0
LINE
5
206
100
AcDbEntity
8
0
100
AcDbLine
10
-55.978808278629721
20
-48.449611958247225
30
0
11
-57.534795604981703
21
-48.449611958247225
31
0
0
LINE
5
207
100
AcDbEntity
8
0
100
AcDbLine
10
-55.941335690472698
20
-52.657889251039229
30
0
11
-55.978808278629721
21
-48.449611958247225
31
0
0
LINE
5
208
100
AcDbEntity
8
0
100
AcDbLine
10
-57.888429644453211
20
-50.217773997862665
30
0
11
-57.888429644453197
21
-55.310085403445548
31
0
0
LINE
5
209
100
AcDbEntity
8
0
100
AcDbLine
10
-58.531720631283136
20
-50.217773997862665
30
0
11
-57.888429644453211
21
-50.217773997862665
31
0
0
LINE
5
210
100
AcDbEntity
8
0
100
AcDbLine
10
-59.175007539242046
20
-50.217773997862665
30
0
11
-58.531720631283136
21
-50.217773997862665
31
0
0
LINE
5
211
100
AcDbEntity
8
0
100
AcDbLine
10
-59.132893195852354
20
-49.333692978054948
30
0
11
-59.175007539242046
21
-50.217773997862665
31
0
0
LINE
5
212
100
AcDbEntity
8
0
100
AcDbLine
10
-59.090778852462655
20
-48.449611958247225
30
0
11
-59.132893195852354
21
-49.333692978054948
31
0
0
LINE
5
213
100
AcDbEntity
8
0
100
AcDbLine
10
-57.534795604981703
20
-48.449611958247225
30
0
11
-59.090778852462655
21
-48.449611958247225
31
0
0
ENDSEC
0
SECTION
2
OBJECTS
0
DICTIONARY
5
C
100
AcDbDictionary
3
ACAD_GROUP
350
D
3
ACAD_MLINESTYLE
350
17
0
DICTIONARY
5
D
100
AcDbDictionary
0
DICTIONARY
5
1A
330
C
100
AcDbDictionary
0
DICTIONARY
5
17
100
AcDbDictionary
0
ENDSEC
0
EOF
